<svg width="176" height="23" viewBox="0 0 176 23" fill="none" xmlns="http://www.w3.org/2000/svg">
<path d="M169.156 14.6641L166.234 14.7188C166.109 14.7188 166.039 14.6927 166.023 14.6406C166.018 14.625 166.016 14.6016 166.016 14.5703C166.016 14.3099 166.221 14 166.633 13.6406C166.924 13.3854 167.151 13.2422 167.312 13.2109C167.766 13.1849 168.583 13.1615 169.766 13.1406C169.833 13.1406 169.969 13.1406 170.172 13.1406L171.484 13.125C173.979 13.1823 175.398 14.0339 175.742 15.6797C175.784 15.8776 175.805 16.0755 175.805 16.2734C175.805 16.9557 175.549 17.6615 175.039 18.3906C174.508 19.151 173.854 19.7005 173.078 20.0391C172.615 20.2422 172.146 20.3438 171.672 20.3438C171.188 20.3438 170.719 20.2266 170.266 19.9922C169.688 19.6901 169.315 19.2474 169.148 18.6641C169.107 18.513 169.086 18.3672 169.086 18.2266C169.086 17.8047 169.289 17.3411 169.695 16.8359C170.029 16.4245 170.341 16.1745 170.633 16.0859C170.685 16.0703 170.734 16.0625 170.781 16.0625C170.88 16.0625 170.93 16.112 170.93 16.2109C170.93 16.3255 170.867 16.4688 170.742 16.6406C170.654 16.7708 170.609 16.8828 170.609 16.9766C170.609 17.3672 170.779 17.7422 171.117 18.1016C171.586 18.5859 172.185 18.8281 172.914 18.8281C173.263 18.8281 173.578 18.763 173.859 18.6328C173.943 18.5964 173.995 18.5625 174.016 18.5312C174.135 18.3594 174.219 18.099 174.266 17.75C174.276 17.6615 174.281 17.5755 174.281 17.4922C174.281 16.8307 174.055 16.2474 173.602 15.7422C173.221 15.3151 172.742 15.0312 172.164 14.8906C171.633 14.7656 170.893 14.6901 169.945 14.6641C169.826 14.6641 169.711 14.6641 169.602 14.6641C169.482 14.6641 169.333 14.6641 169.156 14.6641Z" fill="white"/>
<path d="M160.406 2.75C160.406 2.6875 160.607 2.45312 161.008 2.04688C161.341 1.71875 161.539 1.55469 161.602 1.55469C161.69 1.55469 161.953 1.78385 162.391 2.24219C162.667 2.53385 162.805 2.70312 162.805 2.75C162.805 2.82812 162.583 3.08073 162.141 3.50781C161.833 3.80469 161.654 3.95312 161.602 3.95312C161.534 3.95312 161.292 3.73958 160.875 3.3125C160.562 2.99479 160.406 2.80729 160.406 2.75ZM160.172 5.98438C160.089 5.98438 159.826 5.75 159.383 5.28125C159.107 4.99479 158.969 4.83073 158.969 4.78906C158.969 4.7474 159.021 4.67188 159.125 4.5625L160.078 3.61719C160.115 3.60156 160.146 3.59375 160.172 3.59375C160.26 3.59375 160.526 3.82552 160.969 4.28906C161.245 4.57552 161.383 4.74219 161.383 4.78906C161.383 4.85156 161.195 5.07292 160.82 5.45312C160.471 5.80729 160.255 5.98438 160.172 5.98438ZM162.93 3.61719L163.031 3.59375C163.094 3.59375 163.203 3.67448 163.359 3.83594L163.664 4.14844C164.029 4.50781 164.216 4.70573 164.227 4.74219C164.232 4.7526 164.234 4.76823 164.234 4.78906C164.234 4.84635 164.047 5.0651 163.672 5.44531C163.323 5.80469 163.107 5.98438 163.023 5.98438C162.94 5.98438 162.68 5.75521 162.242 5.29688C161.966 5.00521 161.828 4.83594 161.828 4.78906C161.828 4.74219 161.88 4.66667 161.984 4.5625L162.93 3.61719Z" fill="white"/>
<path d="M158.57 9.53906C158.065 9.49219 157.544 9.46615 157.008 9.46094C155.914 9.46094 155.141 9.625 154.688 9.95312L154.359 10.1953C154.276 10.2422 154.188 10.2656 154.094 10.2656C154 10.2656 153.953 10.2161 153.953 10.1172C153.958 9.90885 154.148 9.60938 154.523 9.21875C154.591 9.15104 154.661 9.08333 154.734 9.01562C155.417 8.39062 156.182 8.00521 157.031 7.85938C157.411 7.79167 157.867 7.75781 158.398 7.75781C159.169 7.75781 160.378 7.85938 162.023 8.0625C163.628 8.26042 164.81 8.35938 165.57 8.35938C166.643 8.35938 167.401 8.19531 167.844 7.86719L168.164 7.61719C168.242 7.57031 168.331 7.54688 168.43 7.54688C168.523 7.54688 168.57 7.59115 168.57 7.67969C168.57 7.91406 168.357 8.24479 167.93 8.67188C167.685 8.91667 167.424 9.13021 167.148 9.3125C166.503 9.74479 165.693 9.98958 164.719 10.0469C164.531 10.0573 164.328 10.0625 164.109 10.0625C163.422 10.0625 162.292 9.97135 160.719 9.78906L159.508 9.64062L159.367 9.75781C158.216 10.7839 157.424 11.7344 156.992 12.6094C156.664 13.276 156.5 13.9505 156.5 14.6328C156.5 15.9297 156.927 17.0312 157.781 17.9375C158.526 18.7344 159.464 19.2448 160.594 19.4688C160.964 19.5469 161.339 19.5859 161.719 19.5859C162.568 19.5859 163.367 19.4089 164.117 19.0547C164.477 18.8828 164.797 18.6771 165.078 18.4375C165.354 18.1979 165.628 17.8542 165.898 17.4062C166.227 16.8646 166.391 16.3802 166.391 15.9531C166.391 15.6354 166.305 15.362 166.133 15.1328C165.992 14.9557 165.909 14.8177 165.883 14.7188C165.862 14.6458 165.852 14.5625 165.852 14.4688C165.852 13.9375 166.096 13.5599 166.586 13.3359C166.768 13.2526 166.935 13.2109 167.086 13.2109C167.529 13.2109 167.828 13.4245 167.984 13.8516C168.057 14.0495 168.094 14.2865 168.094 14.5625C168.094 15.4375 167.578 16.5234 166.547 17.8203C166.12 18.3516 165.714 18.7917 165.328 19.1406C163.74 20.5729 162.06 21.2891 160.289 21.2891C158.982 21.2891 157.831 20.9193 156.836 20.1797C155.919 19.5026 155.305 18.6328 154.992 17.5703C154.857 17.1172 154.789 16.651 154.789 16.1719C154.789 14.4479 155.693 12.6042 157.5 10.6406C157.802 10.3125 158.13 9.97917 158.484 9.64062C158.542 9.58333 158.57 9.54948 158.57 9.53906Z" fill="white"/>
<path d="M149.875 4.78125C149.875 4.72917 150.07 4.5026 150.461 4.10156C150.799 3.76302 151.003 3.59375 151.07 3.59375C151.154 3.59375 151.419 3.82812 151.867 4.29688C152.138 4.58333 152.273 4.7474 152.273 4.78906C152.273 4.86198 152.06 5.10677 151.633 5.52344C151.315 5.83594 151.128 5.99219 151.07 5.99219C150.987 5.99219 150.714 5.7474 150.25 5.25781C150 4.99219 149.875 4.84375 149.875 4.8125C149.875 4.80729 149.875 4.79948 149.875 4.78906V4.78125Z" fill="white"/>
<path d="M148.625 10.3281C148.625 10.1302 148.802 9.84115 149.156 9.46094C149.667 8.91406 150.221 8.53646 150.82 8.32812C151.018 8.25521 151.208 8.21094 151.391 8.19531H151.555C151.961 8.19531 152.221 8.45573 152.336 8.97656C152.346 9.03906 152.357 9.10677 152.367 9.17969C152.372 9.22656 152.375 9.33594 152.375 9.50781C152.375 11.2578 152.331 12.3542 152.242 12.7969C152.19 13.0625 152.073 13.3464 151.891 13.6484C151.589 14.138 151.224 14.5417 150.797 14.8594C150.562 15.0365 150.378 15.125 150.242 15.125C150.148 15.125 150.102 15.0807 150.102 14.9922C150.102 14.8568 150.156 14.724 150.266 14.5938C150.427 14.3958 150.534 14.1641 150.586 13.8984C150.607 13.7734 150.622 13.6302 150.633 13.4688C150.659 13.0938 150.672 12.2318 150.672 10.8828C150.63 10.2682 150.44 9.9401 150.102 9.89844C149.815 9.89844 149.555 9.99479 149.32 10.1875C149.143 10.3333 149.013 10.4193 148.93 10.4453C148.878 10.4609 148.823 10.4688 148.766 10.4688C148.672 10.4688 148.625 10.4219 148.625 10.3281Z" fill="white"/>
<path d="M141 11.4219C141.021 11.4062 141.039 11.3854 141.055 11.3594C141.029 11.3021 140.911 11.0234 140.703 10.5234C140.552 10.1589 140.383 9.92448 140.195 9.82031C140.07 9.7526 139.922 9.71875 139.75 9.71875C139.49 9.71875 139.263 9.80208 139.07 9.96875C138.914 10.099 138.789 10.1719 138.695 10.1875C138.659 10.1927 138.622 10.1953 138.586 10.1953C138.477 10.1953 138.422 10.1458 138.422 10.0469C138.422 9.78125 138.677 9.42188 139.188 8.96875C139.771 8.45312 140.362 8.19531 140.961 8.19531C141.43 8.19531 141.784 8.39844 142.023 8.80469C142.081 8.90885 142.19 9.15365 142.352 9.53906L142.438 9.73438L142.961 9.28906C143.977 8.48698 144.797 8.08594 145.422 8.08594H145.664C146.268 8.08594 146.758 8.29688 147.133 8.71875C147.445 9.07292 147.602 9.50781 147.602 10.0234C147.602 11.2526 146.958 12.4635 145.672 13.6562C145.073 14.2188 144.372 14.7318 143.57 15.1953C142.174 16.013 141.271 16.7891 140.859 17.5234C140.656 17.8776 140.555 18.237 140.555 18.6016C140.555 18.9245 140.654 19.2656 140.852 19.625C141.221 20.3021 141.781 20.6406 142.531 20.6406C142.865 20.6406 143.156 20.5312 143.406 20.3125C143.594 20.1458 143.711 20.0495 143.758 20.0234C143.857 19.9661 143.964 19.9323 144.078 19.9219C144.182 19.9167 144.234 19.9479 144.234 20.0156C144.234 20.026 144.232 20.0469 144.227 20.0781C144.227 20.2396 144.068 20.5052 143.75 20.875C143.24 21.4792 142.674 21.9036 142.055 22.1484C141.732 22.2786 141.417 22.3438 141.109 22.3438C140.38 22.3438 139.792 22.0547 139.344 21.4766C139.083 21.138 138.924 20.7656 138.867 20.3594C138.857 20.2865 138.852 20.1823 138.852 20.0469C138.852 19.349 139.159 18.5573 139.773 17.6719C140.065 17.25 140.417 16.8307 140.828 16.4141C141.234 15.9974 141.698 15.6068 142.219 15.2422C142.307 15.1849 142.352 15.151 142.352 15.1406C142.352 14.9792 142.055 14.0755 141.461 12.4297C141.336 12.0859 141.237 11.8229 141.164 11.6406L141.07 11.3984C141.044 11.4141 141.023 11.4219 141.008 11.4219H141ZM145.898 11.4141C145.898 11.1276 145.807 10.8359 145.625 10.5391C145.292 10.0026 144.758 9.73438 144.023 9.73438C143.664 9.73438 143.266 9.83073 142.828 10.0234C142.682 10.0859 142.609 10.1302 142.609 10.1562L142.695 10.3672C143.117 11.4453 143.508 12.6042 143.867 13.8438L143.953 14.1562C144.021 14.1562 144.333 13.9245 144.891 13.4609C145.042 13.3307 145.154 13.2318 145.227 13.1641C145.674 12.7161 145.898 12.1328 145.898 11.4141Z" fill="white"/>
<path d="M127.547 10.4766C127.458 10.4766 127.414 10.4271 127.414 10.3281C127.414 10.1198 127.612 9.8099 128.008 9.39844C128.409 8.98177 128.831 8.66667 129.273 8.45312C129.643 8.28125 129.987 8.19531 130.305 8.19531C130.669 8.19531 130.919 8.38802 131.055 8.77344C131.091 8.8776 131.122 9.0026 131.148 9.14844V9.71875L131.156 10.2891L131.281 10.1641C131.88 9.58073 132.544 9.08854 133.273 8.6875C134.039 8.26562 134.734 8.05469 135.359 8.05469C136.089 8.05469 136.698 8.31771 137.188 8.84375C137.661 9.35938 137.898 9.99479 137.898 10.75C137.898 11.3698 137.682 12.026 137.25 12.7188C137.021 13.0781 136.745 13.4193 136.422 13.7422C135.521 14.6432 134.625 15.1042 133.734 15.125H133.656C132.833 15.125 132.417 14.8099 132.406 14.1797C132.406 13.7474 132.589 13.4089 132.953 13.1641C133.172 13.013 133.404 12.9375 133.648 12.9375C133.841 12.9375 134.031 13.0026 134.219 13.1328C134.432 13.2839 134.638 13.3724 134.836 13.3984C134.919 13.4141 135.01 13.4219 135.109 13.4219C135.615 13.4219 135.909 13.3255 135.992 13.1328C136.128 12.8359 136.195 12.513 136.195 12.1641C136.195 11.3828 135.901 10.75 135.312 10.2656C135.255 10.2135 135.195 10.1667 135.133 10.125C134.784 9.88021 134.383 9.75781 133.93 9.75781C133.383 9.75781 132.794 9.95833 132.164 10.3594C131.924 10.5052 131.75 10.6406 131.641 10.7656C131.38 11.0677 131.221 11.5443 131.164 12.1953C131.154 12.3255 131.13 12.9661 131.094 14.1172C131.047 15.6641 130.898 17.1562 130.648 18.5938C130.461 19.6406 130.201 20.4635 129.867 21.0625C129.638 21.4688 129.336 21.8698 128.961 22.2656C128.591 22.6562 128.273 22.8906 128.008 22.9688C127.966 22.9792 127.93 22.9844 127.898 22.9844C127.81 22.9844 127.766 22.9401 127.766 22.8516C127.766 22.7109 127.828 22.5625 127.953 22.4062C128.177 22.1458 128.344 21.901 128.453 21.6719C128.656 21.2448 128.823 20.6641 128.953 19.9297C129.182 18.6172 129.326 17.1875 129.383 15.6406C129.43 14.5208 129.453 13.0885 129.453 11.3438C129.453 10.6198 129.362 10.1745 129.18 10.0078C129.102 9.9349 129.003 9.89844 128.883 9.89844C128.602 9.89844 128.349 9.99219 128.125 10.1797C127.948 10.3307 127.818 10.4193 127.734 10.4453C127.677 10.4661 127.615 10.4766 127.547 10.4766Z" fill="white"/>
<path d="M118.461 6.36719C119.32 6.36719 119.99 6.17448 120.469 5.78906L120.898 5.4375C120.997 5.36458 121.099 5.32812 121.203 5.32812C121.312 5.32812 121.367 5.3776 121.367 5.47656C121.367 5.64844 121.206 5.90104 120.883 6.23438C120.336 6.80729 119.674 7.21094 118.898 7.44531C118.664 7.51823 118.427 7.57031 118.188 7.60156C118.005 7.6276 117.766 7.64062 117.469 7.64062C116.792 7.64062 115.932 7.52604 114.891 7.29688C113.854 7.07292 113.086 6.9375 112.586 6.89062C112.294 6.86458 112.005 6.85156 111.719 6.85156C110.943 6.85156 110.305 7.04427 109.805 7.42969L109.375 7.77344C109.271 7.84115 109.174 7.875 109.086 7.875C108.992 7.875 108.943 7.82552 108.938 7.72656C108.938 7.52865 109.083 7.28906 109.375 7.00781C110.167 6.22656 111.049 5.76562 112.023 5.625C112.279 5.59375 112.547 5.57812 112.828 5.57812C113.51 5.57812 114.398 5.69531 115.492 5.92969C116.544 6.15885 117.307 6.29427 117.781 6.33594C118.016 6.35677 118.242 6.36719 118.461 6.36719Z" fill="white"/>
<path d="M113.672 4.78906C113.672 4.73177 113.867 4.5026 114.258 4.10156C114.596 3.76302 114.799 3.59375 114.867 3.59375C114.951 3.59375 115.214 3.82292 115.656 4.28125C115.932 4.57292 116.07 4.74219 116.07 4.78906C116.07 4.86719 115.849 5.1224 115.406 5.55469C115.099 5.84635 114.919 5.99219 114.867 5.99219C114.794 5.99219 114.547 5.77604 114.125 5.34375C113.823 5.03125 113.672 4.84635 113.672 4.78906Z" fill="white"/>
<path d="M107.414 8.76562C107.414 8.39583 107.609 7.99479 108 7.5625C108.323 7.20833 108.612 7.00521 108.867 6.95312C108.898 6.94792 108.927 6.94531 108.953 6.94531C109.057 6.94531 109.109 7 109.109 7.10938C109.099 7.22917 109.039 7.3724 108.93 7.53906V7.60156C108.93 7.75781 108.987 7.90104 109.102 8.03125C109.164 8.10417 109.24 8.15104 109.328 8.17188C109.885 8.31771 111.664 8.39062 114.664 8.39062C117.648 8.39062 119.612 8.35156 120.555 8.27344C121.143 8.22135 121.487 8.15625 121.586 8.07812C121.836 7.88542 122.034 7.78906 122.18 7.78906C122.279 7.78906 122.328 7.84115 122.328 7.94531C122.328 8.1276 122.177 8.38542 121.875 8.71875C121.734 8.86979 121.589 9 121.438 9.10938C121.411 9.13542 121.398 9.15365 121.398 9.16406C121.383 9.24219 121.375 9.4401 121.375 9.75781C121.375 11.6172 121.336 13.6641 121.258 15.8984C121.227 16.7995 121.193 17.4193 121.156 17.7578C121.036 18.9922 120.812 19.9609 120.484 20.6641C120.224 21.2266 119.854 21.7604 119.375 22.2656C119.005 22.6562 118.688 22.8906 118.422 22.9688C118.38 22.9792 118.344 22.9844 118.312 22.9844C118.224 22.9844 118.18 22.9401 118.18 22.8516C118.18 22.6901 118.247 22.5339 118.383 22.3828C118.586 22.1484 118.734 21.9479 118.828 21.7812C119.167 21.151 119.391 20.0938 119.5 18.6094C119.547 17.9948 119.583 16.6641 119.609 14.6172L119.625 13.6172L119.633 13.3984C119.154 13.8776 118.586 14.2812 117.93 14.6094C117.237 14.9531 116.573 15.125 115.938 15.125C115.255 15.125 114.695 14.8438 114.258 14.2812C114.06 14.0312 113.898 13.7318 113.773 13.3828C113.763 13.3828 113.643 13.4844 113.414 13.6875C112.315 14.6458 111.169 15.125 109.977 15.125C109.315 15.125 108.776 14.8672 108.359 14.3516C107.99 13.8984 107.805 13.3542 107.805 12.7188C107.805 11.8125 108.177 10.9089 108.922 10.0078L109.023 9.89062L109.07 9.82812C109.07 9.81771 109.042 9.8125 108.984 9.8125C108.401 9.77604 108.01 9.70052 107.812 9.58594C107.547 9.4349 107.414 9.16146 107.414 8.76562ZM119.992 9.71094C119.039 9.82552 117.896 9.88802 116.562 9.89844C115.927 9.89844 115.596 9.92708 115.57 9.98438C115.477 10.1042 115.409 10.3594 115.367 10.75C115.357 10.849 115.352 10.9453 115.352 11.0391C115.352 11.8203 115.615 12.4479 116.141 12.9219C116.438 13.1875 116.755 13.349 117.094 13.4062C117.167 13.4167 117.253 13.4219 117.352 13.4219C117.898 13.4219 118.427 13.2865 118.938 13.0156C119.161 12.8958 119.307 12.7839 119.375 12.6797C119.568 12.388 119.664 12.0078 119.664 11.5391C119.664 11.0443 119.672 10.7396 119.688 10.625C119.729 10.3177 119.826 10.0312 119.977 9.76562L120 9.71875L119.992 9.71094ZM109.508 11.2656C109.508 11.8802 109.698 12.3984 110.078 12.8203C110.443 13.2214 110.891 13.4219 111.422 13.4219C112.052 13.4219 112.609 13.2708 113.094 12.9688C113.286 12.849 113.396 12.7839 113.422 12.7734C113.51 12.6536 113.589 12.4193 113.656 12.0703C113.766 11.5026 113.943 11.0052 114.188 10.5781C114.312 10.3594 114.464 10.138 114.641 9.91406H113.133L111.086 9.89844H110.508C110.117 9.94531 109.893 9.9974 109.836 10.0547C109.815 10.0703 109.776 10.138 109.719 10.2578C109.578 10.5651 109.508 10.901 109.508 11.2656Z" fill="white"/>
<path d="M103.32 14.9922L100.422 14.9219C99.7031 14.9219 99.2578 14.9375 99.0859 14.9688H99.0391V15.0078C98.8776 17.638 98.5495 19.5182 98.0547 20.6484C97.9401 20.9141 97.8073 21.1589 97.6562 21.3828C97.2917 21.9349 96.8932 22.3776 96.4609 22.7109C96.2214 22.8932 96.0286 22.9844 95.8828 22.9844C95.7943 22.9844 95.75 22.9401 95.75 22.8516C95.75 22.7109 95.8125 22.5625 95.9375 22.4062C96.1615 22.1458 96.3281 21.901 96.4375 21.6719C96.6406 21.2448 96.8073 20.6641 96.9375 19.9297C97.1667 18.6172 97.3099 17.1875 97.3672 15.6406C97.4141 14.5208 97.4375 13.0885 97.4375 11.3438C97.4375 10.6198 97.3464 10.1745 97.1641 10.0078C97.0859 9.9349 96.987 9.89844 96.8672 9.89844C96.5859 9.89844 96.3333 9.99219 96.1094 10.1797C95.9323 10.3307 95.8021 10.4193 95.7188 10.4453C95.6615 10.4661 95.599 10.4766 95.5312 10.4766C95.4427 10.4766 95.3984 10.4271 95.3984 10.3281C95.3984 10.1198 95.5964 9.8099 95.9922 9.39844C96.3932 8.98177 96.8151 8.66667 97.2578 8.45312C97.6276 8.28125 97.9714 8.19531 98.2891 8.19531C98.6536 8.19531 98.9036 8.38802 99.0391 8.77344C99.0755 8.8776 99.1068 9.0026 99.1328 9.14844V9.71875L99.1406 10.2891L99.2656 10.1641C99.8906 9.55469 100.573 9.05208 101.312 8.65625C101.943 8.31771 102.523 8.1224 103.055 8.07031L103.18 8.0625H103.406C104.094 8.0625 104.669 8.30729 105.133 8.79688C105.576 9.26562 105.797 9.84635 105.797 10.5391C105.797 11.3984 105.419 12.2786 104.664 13.1797L104.414 13.4766L104.766 13.4688C105.557 13.4583 106.06 13.3672 106.273 13.1953C106.555 12.9505 106.781 12.8281 106.953 12.8281C107.052 12.8281 107.102 12.8802 107.102 12.9844C107.102 13.1562 106.971 13.3958 106.711 13.7031C106.211 14.2865 105.557 14.6745 104.75 14.8672C104.547 14.9141 104.339 14.9479 104.125 14.9688C103.927 14.9844 103.659 14.9922 103.32 14.9922ZM99.1172 13.5547C99.9453 13.4609 100.82 13.4089 101.742 13.3984L102.75 13.4219C103.13 13.4219 103.44 13.3516 103.68 13.2109C103.742 13.1745 103.784 13.138 103.805 13.1016C103.997 12.763 104.094 12.3776 104.094 11.9453C104.094 11.3984 103.911 10.9141 103.547 10.4922C103.177 10.0651 102.701 9.82292 102.117 9.76562C102.06 9.76042 102.003 9.75781 101.945 9.75781C101.362 9.75781 100.755 9.96354 100.125 10.375C99.849 10.5521 99.6562 10.7161 99.5469 10.8672C99.3802 11.0964 99.2708 11.3411 99.2188 11.6016C99.1406 11.9766 99.1016 12.6198 99.1016 13.5312V13.5469C99.1016 13.5521 99.1068 13.5547 99.1172 13.5547Z" fill="white"/>
<path d="M88.6797 2.72656C88.6797 2.48698 88.862 2.21615 89.2266 1.91406C89.4818 1.70052 89.6771 1.59375 89.8125 1.59375C89.8698 1.59375 89.9505 1.66146 90.0547 1.79688C89.8724 1.5625 90.1094 1.8724 90.7656 2.72656L91.6172 3.82812C91.6224 3.82812 91.7995 3.60156 92.1484 3.14844C92.763 2.35677 93.1797 1.88281 93.3984 1.72656C93.5234 1.63802 93.6458 1.59375 93.7656 1.59375C93.8438 1.59375 93.888 1.64062 93.8984 1.73438C93.8984 1.89583 93.6823 2.25 93.25 2.79688L92.6641 3.53906C92.0286 4.36719 91.6198 4.8724 91.4375 5.05469C91.1927 5.30469 90.9792 5.42969 90.7969 5.42969C90.7344 5.42969 90.5833 5.27344 90.3438 4.96094L89.7031 4.11719C89.0365 3.2474 88.7005 2.8099 88.6953 2.80469C88.6849 2.78385 88.6797 2.75781 88.6797 2.72656Z" fill="white"/>
<path d="M84.4688 10.4766C84.3802 10.4766 84.3359 10.4271 84.3359 10.3281C84.3359 10.1198 84.5339 9.8099 84.9297 9.39844C85.3307 8.98177 85.7526 8.66667 86.1953 8.45312C86.5651 8.28125 86.9089 8.19531 87.2266 8.19531C87.5911 8.19531 87.8411 8.38802 87.9766 8.77344C88.013 8.8776 88.0443 9.0026 88.0703 9.14844V9.71875L88.0781 10.2891L88.2031 10.1641C88.8021 9.58073 89.4661 9.08854 90.1953 8.6875C90.9609 8.26562 91.6562 8.05469 92.2812 8.05469C93.0104 8.05469 93.6198 8.31771 94.1094 8.84375C94.5833 9.35938 94.8203 9.99479 94.8203 10.75C94.8203 11.3698 94.6042 12.026 94.1719 12.7188C93.9427 13.0781 93.6667 13.4193 93.3438 13.7422C92.4427 14.6432 91.5469 15.1042 90.6562 15.125H90.5781C89.7552 15.125 89.3385 14.8099 89.3281 14.1797C89.3281 13.7474 89.5104 13.4089 89.875 13.1641C90.0938 13.013 90.3255 12.9375 90.5703 12.9375C90.763 12.9375 90.9531 13.0026 91.1406 13.1328C91.3542 13.2839 91.5599 13.3724 91.7578 13.3984C91.8411 13.4141 91.9323 13.4219 92.0312 13.4219C92.5365 13.4219 92.8307 13.3255 92.9141 13.1328C93.0495 12.8359 93.1172 12.513 93.1172 12.1641C93.1172 11.3828 92.8229 10.75 92.2344 10.2656C92.1771 10.2135 92.1172 10.1667 92.0547 10.125C91.7057 9.88021 91.3047 9.75781 90.8516 9.75781C90.3047 9.75781 89.7161 9.95833 89.0859 10.3594C88.8464 10.5052 88.6719 10.6406 88.5625 10.7656C88.3021 11.0677 88.1432 11.5443 88.0859 12.1953C88.0755 12.3255 88.0521 12.9661 88.0156 14.1172C87.9688 15.6641 87.8203 17.1562 87.5703 18.5938C87.3828 19.6406 87.1224 20.4635 86.7891 21.0625C86.5599 21.4688 86.2578 21.8698 85.8828 22.2656C85.513 22.6562 85.1953 22.8906 84.9297 22.9688C84.888 22.9792 84.8516 22.9844 84.8203 22.9844C84.7318 22.9844 84.6875 22.9401 84.6875 22.8516C84.6875 22.7109 84.75 22.5625 84.875 22.4062C85.099 22.1458 85.2656 21.901 85.375 21.6719C85.5781 21.2448 85.7448 20.6641 85.875 19.9297C86.1042 18.6172 86.2474 17.1875 86.3047 15.6406C86.3516 14.5208 86.375 13.0885 86.375 11.3438C86.375 10.6198 86.2839 10.1745 86.1016 10.0078C86.0234 9.9349 85.9245 9.89844 85.8047 9.89844C85.5234 9.89844 85.2708 9.99219 85.0469 10.1797C84.8698 10.3307 84.7396 10.4193 84.6562 10.4453C84.599 10.4661 84.5365 10.4766 84.4688 10.4766Z" fill="white"/>
<path d="M74.7578 12.9375C75.0078 12.9375 75.2005 13 75.3359 13.125C75.4714 13.25 75.5859 13.3281 75.6797 13.3594C75.8151 13.401 75.9922 13.4219 76.2109 13.4219C76.4818 13.4219 76.7604 13.362 77.0469 13.2422C77.2188 12.8984 77.3047 12.5339 77.3047 12.1484C77.3047 11.4141 77.0417 10.8125 76.5156 10.3438C76.1875 10.0469 75.8177 9.86198 75.4062 9.78906C75.2969 9.76823 75.1823 9.75781 75.0625 9.75781C74.4896 9.75781 73.9089 9.94792 73.3203 10.3281C73.0651 10.4896 72.8854 10.6406 72.7812 10.7812C72.5417 11.1042 72.3828 11.5156 72.3047 12.0156C72.2214 12.526 72.1562 12.8594 72.1094 13.0156C71.9479 13.5208 71.6224 14.0182 71.1328 14.5078C70.7734 14.8672 70.4766 15.0703 70.2422 15.1172C70.2161 15.1224 70.1927 15.125 70.1719 15.125C70.0833 15.125 70.0391 15.0807 70.0391 14.9922C70.0391 14.8411 70.0911 14.7057 70.1953 14.5859C70.3464 14.4141 70.4479 14.2135 70.5 13.9844C70.5312 13.8385 70.5547 13.6641 70.5703 13.4609C70.5807 13.3047 70.5859 12.3359 70.5859 10.5547C70.5911 9.29427 70.6146 8.27344 70.6562 7.49219C70.7344 5.96615 70.8958 4.80469 71.1406 4.00781C71.4375 3.04427 71.9505 2.20052 72.6797 1.47656C73.0807 1.07552 73.3932 0.875 73.6172 0.875C73.7109 0.875 73.7578 0.921875 73.7578 1.01562C73.7578 1.19271 73.5859 1.48177 73.2422 1.88281C73.1797 1.95052 73.1432 1.99479 73.1328 2.01562C72.5859 2.95833 72.3125 5.08073 72.3125 8.38281C72.3073 8.76302 72.3047 9.2526 72.3047 9.85156L72.2969 10.2812L72.4609 10.125C73.1641 9.4375 73.9089 8.90365 74.6953 8.52344C75.3411 8.21094 75.9427 8.05469 76.5 8.05469C77.2083 8.05469 77.8047 8.3125 78.2891 8.82812C78.7682 9.34375 79.0078 9.97917 79.0078 10.7344C79.0078 11.7552 78.5156 12.7578 77.5312 13.7422C76.6094 14.6641 75.6875 15.125 74.7656 15.125C73.9375 15.125 73.5234 14.8021 73.5234 14.1562C73.5234 13.8385 73.6484 13.5521 73.8984 13.2969C74.138 13.0573 74.4245 12.9375 74.7578 12.9375Z" fill="white"/>
<path d="M63 2.75C63 2.69271 63.2005 2.46094 63.6016 2.05469C63.9349 1.72135 64.1354 1.55469 64.2031 1.55469C64.2917 1.55469 64.5521 1.78385 64.9844 2.24219C65.2604 2.53385 65.3984 2.70312 65.3984 2.75C65.3984 2.82292 65.1771 3.07552 64.7344 3.50781C64.4323 3.80469 64.2552 3.95312 64.2031 3.95312C64.1302 3.95312 63.8828 3.73438 63.4609 3.29688C63.1536 2.98438 63 2.80208 63 2.75ZM62.6719 3.61719L62.7734 3.59375C62.8359 3.59375 62.9453 3.67448 63.1016 3.83594L63.4062 4.14844C63.7708 4.50781 63.9583 4.70573 63.9688 4.74219C63.974 4.7526 63.9766 4.76823 63.9766 4.78906C63.9766 4.84635 63.7891 5.0651 63.4141 5.44531C63.0651 5.80469 62.849 5.98438 62.7656 5.98438C62.6823 5.98438 62.4219 5.75521 61.9844 5.29688C61.7083 5.00521 61.5703 4.83594 61.5703 4.78906C61.5703 4.74219 61.6224 4.66667 61.7266 4.5625L62.6719 3.61719ZM65.625 5.98438C65.5417 5.98438 65.2786 5.7526 64.8359 5.28906C64.5651 4.9974 64.4297 4.83073 64.4297 4.78906C64.4297 4.74219 64.4792 4.66667 64.5781 4.5625L65.5312 3.61719C65.5677 3.60156 65.599 3.59375 65.625 3.59375C65.7083 3.59375 65.9661 3.8151 66.3984 4.25781C66.6901 4.5599 66.8359 4.73698 66.8359 4.78906C66.8359 4.85156 66.6484 5.07292 66.2734 5.45312C65.9245 5.80729 65.7083 5.98438 65.625 5.98438Z" fill="white"/>
<path d="M58.3672 10.3438C58.3672 10.0938 58.5807 9.76042 59.0078 9.34375C59.5234 8.83854 60.0651 8.49219 60.6328 8.30469C60.862 8.23177 61.0729 8.19531 61.2656 8.19531C61.7031 8.19531 61.974 8.45833 62.0781 8.98438C62.1042 9.10417 62.1172 9.36979 62.1172 9.78125L62.1094 10.2812L62.2734 10.125C62.8672 9.53125 63.5312 9.03906 64.2656 8.64844C65.0052 8.2526 65.6823 8.05469 66.2969 8.05469C67.0052 8.05469 67.6016 8.3125 68.0859 8.82812C68.5755 9.34896 68.8203 9.98958 68.8203 10.75C68.8203 11.3385 68.6302 11.9609 68.25 12.6172C67.8229 13.3516 67.2057 13.987 66.3984 14.5234C65.7839 14.9245 65.1771 15.125 64.5781 15.125C63.8073 15.125 63.3932 14.8516 63.3359 14.3047C63.3307 14.263 63.3281 14.224 63.3281 14.1875C63.3281 13.8594 63.4531 13.5651 63.7031 13.3047C63.9375 13.0599 64.224 12.9375 64.5625 12.9375C64.8125 12.9375 65.0052 13 65.1406 13.125C65.2708 13.25 65.388 13.3281 65.4922 13.3594C65.6224 13.401 65.7995 13.4219 66.0234 13.4219C66.2943 13.4219 66.5729 13.362 66.8594 13.2422C67.0312 12.9036 67.1172 12.5443 67.1172 12.1641C67.1172 11.3984 66.8411 10.7786 66.2891 10.3047C65.9661 10.0286 65.6094 9.85677 65.2188 9.78906C65.1094 9.76823 64.9948 9.75781 64.875 9.75781C64.3073 9.75781 63.7266 9.94531 63.1328 10.3203C62.8776 10.487 62.6979 10.6406 62.5938 10.7812C62.349 11.1198 62.1875 11.5443 62.1094 12.0547C62.026 12.5547 61.9609 12.8802 61.9141 13.0312C61.8464 13.2448 61.7526 13.4505 61.6328 13.6484C61.3411 14.1328 60.9792 14.5365 60.5469 14.8594C60.3021 15.0365 60.1146 15.125 59.9844 15.125C59.8906 15.125 59.8438 15.0807 59.8438 14.9922C59.8438 14.862 59.901 14.7266 60.0156 14.5859C60.1823 14.388 60.2891 14.1589 60.3359 13.8984C60.388 13.5911 60.4141 12.6016 60.4141 10.9297C60.3724 10.2839 60.1823 9.9401 59.8438 9.89844C59.5625 9.89844 59.3047 9.99479 59.0703 10.1875C58.8932 10.3385 58.763 10.4245 58.6797 10.4453C58.6224 10.4661 58.5651 10.4766 58.5078 10.4766C58.4141 10.4766 58.3672 10.4323 58.3672 10.3438Z" fill="white"/>
<path d="M54.6406 6.49219C54.4896 6.45573 54.4036 6.36458 54.3828 6.21875C54.3828 6.07292 54.9115 5.32812 55.9688 3.98438C56.7604 2.97396 57.3099 2.31771 57.6172 2.01562C57.7839 1.84896 57.9661 1.76562 58.1641 1.76562C58.3984 1.76562 58.5625 1.86979 58.6562 2.07812C58.6927 2.15104 58.7109 2.23177 58.7109 2.32031C58.7109 2.4974 58.6406 2.67188 58.5 2.84375C58.151 3.29688 57.2005 4.2474 55.6484 5.69531C55.1745 6.14323 54.9089 6.38542 54.8516 6.42188C54.7839 6.46875 54.7135 6.49219 54.6406 6.49219Z" fill="white"/>
<path d="M53.4219 10.3281C53.4219 10.1302 53.599 9.84115 53.9531 9.46094C54.4635 8.91406 55.0182 8.53646 55.6172 8.32812C55.8151 8.25521 56.0052 8.21094 56.1875 8.19531H56.3516C56.7578 8.19531 57.0182 8.45573 57.1328 8.97656C57.1432 9.03906 57.1536 9.10677 57.1641 9.17969C57.1693 9.22656 57.1719 9.33594 57.1719 9.50781C57.1719 11.2578 57.1276 12.3542 57.0391 12.7969C56.987 13.0625 56.8698 13.3464 56.6875 13.6484C56.3854 14.138 56.0208 14.5417 55.5938 14.8594C55.3594 15.0365 55.1745 15.125 55.0391 15.125C54.9453 15.125 54.8984 15.0807 54.8984 14.9922C54.8984 14.8568 54.9531 14.724 55.0625 14.5938C55.224 14.3958 55.3307 14.1641 55.3828 13.8984C55.4036 13.7734 55.4193 13.6302 55.4297 13.4688C55.4557 13.0938 55.4688 12.2318 55.4688 10.8828C55.4271 10.2682 55.237 9.9401 54.8984 9.89844C54.612 9.89844 54.3516 9.99479 54.1172 10.1875C53.9401 10.3333 53.8099 10.4193 53.7266 10.4453C53.6745 10.4609 53.6198 10.4688 53.5625 10.4688C53.4688 10.4688 53.4219 10.4219 53.4219 10.3281Z" fill="white"/>
<path d="M40.8438 16.1953C40.7708 16.1953 40.5156 15.9688 40.0781 15.5156C39.7865 15.2135 39.6406 15.0391 39.6406 14.9922C39.6406 14.9453 39.8229 14.7318 40.1875 14.3516C40.5469 13.9818 40.7682 13.7969 40.8516 13.7969C40.9297 13.7969 41.1901 14.0312 41.6328 14.5C41.9089 14.7865 42.0469 14.9505 42.0469 14.9922C42.0469 15.0651 41.8255 15.3177 41.3828 15.75C41.0755 16.0469 40.8958 16.1953 40.8438 16.1953Z" fill="white"/>
<path d="M37.9453 9.53906C37.4401 9.49219 36.9193 9.46615 36.3828 9.46094C35.2891 9.46094 34.5156 9.625 34.0625 9.95312L33.7344 10.1953C33.651 10.2422 33.5625 10.2656 33.4688 10.2656C33.375 10.2656 33.3281 10.2161 33.3281 10.1172C33.3333 9.90885 33.5234 9.60938 33.8984 9.21875C33.9661 9.15104 34.0365 9.08333 34.1094 9.01562C34.7917 8.39062 35.5573 8.00521 36.4062 7.85938C36.7865 7.79167 37.2422 7.75781 37.7734 7.75781C38.5443 7.75781 39.7526 7.85938 41.3984 8.0625C43.0026 8.26042 44.1849 8.35938 44.9453 8.35938C46.0182 8.35938 46.776 8.19531 47.2188 7.86719L47.5391 7.61719C47.6172 7.57031 47.7057 7.54688 47.8047 7.54688C47.8984 7.54688 47.9453 7.59115 47.9453 7.67969C47.9453 7.91406 47.7318 8.24479 47.3047 8.67188C47.0599 8.91667 46.7995 9.13021 46.5234 9.3125C45.8776 9.74479 45.0677 9.98958 44.0938 10.0469C43.9062 10.0573 43.7031 10.0625 43.4844 10.0625C42.7969 10.0625 41.6667 9.97135 40.0938 9.78906L38.8828 9.64062L38.7422 9.75781C37.5911 10.7839 36.7995 11.7344 36.3672 12.6094C36.0391 13.276 35.875 13.9505 35.875 14.6328C35.875 15.9297 36.3021 17.0312 37.1562 17.9375C37.901 18.7344 38.8385 19.2448 39.9688 19.4688C40.3385 19.5469 40.7135 19.5859 41.0938 19.5859C41.9427 19.5859 42.7422 19.4089 43.4922 19.0547C43.8516 18.8828 44.1719 18.6771 44.4531 18.4375C44.7292 18.1979 45.0026 17.8542 45.2734 17.4062C45.6016 16.8646 45.7656 16.3802 45.7656 15.9531C45.7656 15.6354 45.6797 15.362 45.5078 15.1328C45.3672 14.9557 45.2839 14.8177 45.2578 14.7188C45.237 14.6458 45.2266 14.5625 45.2266 14.4688C45.2266 13.9375 45.4714 13.5599 45.9609 13.3359C46.1432 13.2526 46.3099 13.2109 46.4609 13.2109C46.9036 13.2109 47.2031 13.4245 47.3594 13.8516C47.4323 14.0495 47.4688 14.2865 47.4688 14.5625C47.4688 15.4375 46.9531 16.5234 45.9219 17.8203C45.4948 18.3516 45.0885 18.7917 44.7031 19.1406C43.1146 20.5729 41.4349 21.2891 39.6641 21.2891C38.3568 21.2891 37.2057 20.9193 36.2109 20.1797C35.2943 19.5026 34.6797 18.6328 34.3672 17.5703C34.2318 17.1172 34.1641 16.651 34.1641 16.1719C34.1641 14.4479 35.0677 12.6042 36.875 10.6406C37.1771 10.3125 37.5052 9.97917 37.8594 9.64062C37.9167 9.58333 37.9453 9.54948 37.9453 9.53906Z" fill="white"/>
<path d="M28.4844 16.4219C29.3333 16.4219 30 16.2292 30.4844 15.8438L30.8984 15.5078C30.9974 15.4401 31.0938 15.4062 31.1875 15.4062C31.2969 15.4062 31.3516 15.4557 31.3516 15.5547C31.3516 15.7318 31.2031 15.9792 30.9062 16.2969C30.3698 16.8802 29.6875 17.2891 28.8594 17.5234C28.4323 17.6432 27.987 17.7031 27.5234 17.7031C26.8255 17.7031 25.9479 17.5885 24.8906 17.3594C23.8802 17.1354 23.1406 17.0026 22.6719 16.9609C22.4167 16.9349 22.1641 16.9219 21.9141 16.9219C21.0755 16.9219 20.4167 17.112 19.9375 17.4922L19.5156 17.8359C19.4115 17.9036 19.3073 17.9375 19.2031 17.9375C19.1042 17.9375 19.0547 17.8906 19.0547 17.7969C19.0547 17.599 19.2344 17.3229 19.5938 16.9688C19.8073 16.7656 20.0547 16.5703 20.3359 16.3828C21.0755 15.888 21.9245 15.6406 22.8828 15.6406C23.5807 15.6406 24.4557 15.7578 25.5078 15.9922C26.5182 16.2161 27.2552 16.349 27.7188 16.3906C27.9792 16.4115 28.2344 16.4219 28.4844 16.4219Z" fill="white"/>
<path d="M23.9375 4.78906C23.9375 4.73177 24.1328 4.5026 24.5234 4.10156C24.862 3.76302 25.0651 3.59375 25.1328 3.59375C25.2161 3.59375 25.4792 3.82292 25.9219 4.28125C26.1979 4.57292 26.3359 4.74219 26.3359 4.78906C26.3359 4.86719 26.1146 5.1224 25.6719 5.55469C25.3646 5.84635 25.1849 5.99219 25.1328 5.99219C25.0599 5.99219 24.8125 5.77604 24.3906 5.34375C24.0885 5.03125 23.9375 4.84635 23.9375 4.78906Z" fill="white"/>
<path d="M17.0625 10.4766C16.974 10.4766 16.9297 10.4271 16.9297 10.3281C16.9297 10.1198 17.1276 9.8099 17.5234 9.39844C17.9245 8.98177 18.3464 8.66667 18.7891 8.45312C19.1589 8.28125 19.5026 8.19531 19.8203 8.19531C20.263 8.19531 20.5365 8.47396 20.6406 9.03125C20.6562 9.10938 20.6641 9.3151 20.6641 9.64844L20.6719 10.1562L20.8516 9.97656C21.6745 9.17448 22.4818 8.61458 23.2734 8.29688C23.6068 8.15104 23.9714 8.07292 24.3672 8.0625C24.3984 8.0625 24.4271 8.0625 24.4531 8.0625C25.1927 8.0625 25.7943 8.42969 26.2578 9.16406C26.4609 9.49219 26.5807 9.78125 26.6172 10.0312C26.638 10.0312 26.7005 9.97135 26.8047 9.85156C27.0703 9.5599 27.4427 9.25 27.9219 8.92188C28.7448 8.34896 29.4896 8.0625 30.1562 8.0625C30.8802 8.0625 31.4635 8.40104 31.9062 9.07812C31.9688 9.17188 32.0234 9.26562 32.0703 9.35938C32.2734 9.76042 32.375 10.1979 32.375 10.6719C32.375 11.5625 32.0208 12.4401 31.3125 13.3047C31.0885 13.5807 30.8307 13.8464 30.5391 14.1016C29.7318 14.7682 28.987 15.1094 28.3047 15.125C27.487 15.125 27.0781 14.8073 27.0781 14.1719C27.0781 13.7396 27.263 13.401 27.6328 13.1562C27.8516 13.0104 28.0781 12.9375 28.3125 12.9375C28.5208 12.9375 28.7161 13.0052 28.8984 13.1406C29.0964 13.2865 29.2812 13.3724 29.4531 13.3984C29.5469 13.4141 29.6484 13.4219 29.7578 13.4219C30.0911 13.4219 30.2995 13.3672 30.3828 13.2578C30.4036 13.237 30.4271 13.1953 30.4531 13.1328C30.599 12.8151 30.6719 12.474 30.6719 12.1094C30.6719 11.474 30.4766 10.9245 30.0859 10.4609C29.9766 10.3307 29.8594 10.2188 29.7344 10.125C29.4219 9.88542 29.0833 9.76562 28.7188 9.76562C28.2969 9.76562 27.9115 9.88542 27.5625 10.125C27.4062 10.2292 27.2839 10.349 27.1953 10.4844C27.0234 10.7448 26.8073 11.1745 26.5469 11.7734C26.3438 12.2422 26.151 12.612 25.9688 12.8828C25.6042 13.4349 25.1562 13.9193 24.625 14.3359C24.0729 14.7682 23.5234 15.0286 22.9766 15.1172C22.9349 15.1224 22.862 15.125 22.7578 15.125C21.8984 15.099 21.4583 14.7839 21.4375 14.1797C21.4375 13.9349 21.5234 13.6901 21.6953 13.4453C21.9349 13.1068 22.2734 12.9375 22.7109 12.9375C22.8932 12.9375 23.0755 13.0026 23.2578 13.1328C23.4661 13.2891 23.6719 13.3802 23.875 13.4062C23.9531 13.4167 24.0391 13.4219 24.1328 13.4219C24.4557 13.4219 24.651 13.375 24.7188 13.2812C24.7396 13.2552 24.763 13.2135 24.7891 13.1562C24.9193 12.8438 24.9844 12.5026 24.9844 12.1328C24.9844 11.5807 24.8203 11.0703 24.4922 10.6016C24.0964 10.0391 23.5938 9.75781 22.9844 9.75781C22.5 9.75781 22.013 9.9401 21.5234 10.3047C21.4349 10.3672 21.3594 10.4297 21.2969 10.4922C20.9427 10.8464 20.737 11.362 20.6797 12.0391C20.6693 12.1797 20.6589 12.5182 20.6484 13.0547C20.5859 15.9141 20.349 18.1172 19.9375 19.6641C19.8698 19.9193 19.7969 20.1458 19.7188 20.3438C19.4271 21.1094 18.9792 21.7865 18.375 22.375C17.9635 22.776 17.6432 22.9792 17.4141 22.9844C17.3255 22.9844 17.2812 22.9401 17.2812 22.8516C17.2812 22.7109 17.3438 22.5625 17.4688 22.4062C17.6927 22.1458 17.8594 21.901 17.9688 21.6719C18.1719 21.2448 18.3385 20.6641 18.4688 19.9297C18.6979 18.6172 18.8411 17.1875 18.8984 15.6406C18.9453 14.5208 18.9688 13.0885 18.9688 11.3438C18.9688 10.6198 18.8776 10.1745 18.6953 10.0078C18.6172 9.9349 18.5182 9.89844 18.3984 9.89844C18.1172 9.89844 17.8646 9.99219 17.6406 10.1797C17.4635 10.3307 17.3333 10.4193 17.25 10.4453C17.1927 10.4661 17.1302 10.4766 17.0625 10.4766Z" fill="white"/>
<path d="M12.8047 14.9922L7.95312 14.9219C6.21875 14.9219 4.31771 14.9896 2.25 15.125C2.14062 15.1302 2.08073 15.0964 2.07031 15.0234C2.0651 15.013 2.0625 15 2.0625 14.9844C2.0625 14.8594 2.1276 14.7109 2.25781 14.5391C2.41927 14.3255 2.51823 14.112 2.55469 13.8984C2.60156 13.5807 2.625 12.6432 2.625 11.0859C2.625 10.3672 2.47396 9.97396 2.17188 9.90625C2.13542 9.90104 2.09896 9.89844 2.0625 9.89844C1.78125 9.89844 1.52344 9.99479 1.28906 10.1875C1.11198 10.3385 0.981771 10.4245 0.898438 10.4453C0.841146 10.4661 0.783854 10.4766 0.726562 10.4766C0.632812 10.4766 0.585938 10.4323 0.585938 10.3438C0.585938 10.0938 0.799479 9.76042 1.22656 9.34375C1.74219 8.83854 2.28385 8.49219 2.85156 8.30469C3.08073 8.23177 3.29167 8.19531 3.48438 8.19531C3.92188 8.19531 4.19271 8.45833 4.29688 8.98438C4.32292 9.13021 4.33594 9.36979 4.33594 9.70312L4.32812 10.1406L4.52344 9.94531C5.57552 8.89323 6.61719 8.27604 7.64844 8.09375C7.72135 8.08333 7.79688 8.07292 7.875 8.0625H8.07812C8.64583 8.0625 9.14062 8.28646 9.5625 8.73438C9.88542 9.08333 10.1172 9.53385 10.2578 10.0859L10.4688 9.875C11.1458 9.19792 11.8411 8.69792 12.5547 8.375C13.0234 8.16146 13.4583 8.05469 13.8594 8.05469C14.3802 8.05469 14.8385 8.24479 15.2344 8.625C15.6146 8.98438 15.849 9.45312 15.9375 10.0312C15.9479 10.1146 15.9531 10.2266 15.9531 10.3672C15.9531 11.3672 15.4635 12.401 14.4844 13.4688H14.6953C15.5703 13.4688 16.112 13.3802 16.3203 13.2031C16.6016 12.9635 16.8281 12.8385 17 12.8281C17.1042 12.8281 17.1562 12.8802 17.1562 12.9844C17.1562 13.151 17.013 13.3958 16.7266 13.7188C16.2318 14.276 15.6328 14.651 14.9297 14.8438C14.7995 14.8802 14.6693 14.9089 14.5391 14.9297C14.2474 14.9714 13.6693 14.9922 12.8047 14.9922ZM8.61719 12.1484C8.61719 11.7682 8.52083 11.3698 8.32812 10.9531C7.95833 10.1615 7.36979 9.76562 6.5625 9.76562C6.15104 9.76562 5.71354 9.92188 5.25 10.2344C5.11458 10.3229 5.01562 10.4036 4.95312 10.4766C4.67188 10.7943 4.47917 11.2474 4.375 11.8359L4.20312 12.7734C4.13021 13.0807 4.02865 13.3464 3.89844 13.5703H3.92188L7.96094 13.3906C8.20052 13.3646 8.34375 13.3047 8.39062 13.2109L8.46875 13.0234C8.56771 12.7526 8.61719 12.4609 8.61719 12.1484ZM14.25 11.8047C14.25 11.2057 14.0573 10.7083 13.6719 10.3125C13.3125 9.94792 12.8672 9.76562 12.3359 9.76562C11.9505 9.76562 11.5521 9.91146 11.1406 10.2031C11.0573 10.2604 10.9896 10.3151 10.9375 10.3672C10.75 10.5495 10.5443 10.8984 10.3203 11.4141C10.0339 12.0807 9.79167 12.5677 9.59375 12.875C9.47396 13.0573 9.34635 13.2318 9.21094 13.3984H9.69531L12.7031 13.4531C13.3698 13.4531 13.7839 13.3021 13.9453 13C13.9505 12.9948 13.9714 12.9531 14.0078 12.875C14.1693 12.5417 14.25 12.1849 14.25 11.8047Z" fill="white"/>
</svg>
