<svg width="65" height="50" viewBox="0 0 65 50" fill="none" xmlns="http://www.w3.org/2000/svg">
<path d="M58.29 34.3213C59.3044 34.3213 60.0713 34.0924 60.5908 33.6348C60.9124 33.3379 61.1351 33.1647 61.2588 33.1152C61.4072 33.0658 61.5742 33.041 61.7598 33.041C61.9948 33.041 62.1123 33.1523 62.1123 33.375C62.1123 33.7461 61.8031 34.278 61.1846 34.9707C60.096 36.1953 58.8096 36.9499 57.3252 37.2344C56.9541 37.3086 56.5768 37.3457 56.1934 37.3457C56.1191 37.3457 56.0326 37.3457 55.9336 37.3457C55.3522 37.3457 53.9049 37.1354 51.5918 36.7148C50.2435 36.4798 49.3281 36.3623 48.8457 36.3623C47.8685 36.3623 47.1077 36.5973 46.5635 37.0674C46.2171 37.3643 45.9821 37.5374 45.8584 37.5869C45.7223 37.6364 45.5615 37.6611 45.376 37.6611C45.1533 37.6611 45.042 37.5374 45.042 37.29C45.042 36.8818 45.3636 36.3314 46.0068 35.6387C47.1077 34.4512 48.4251 33.7152 49.959 33.4307C50.3548 33.3564 50.7507 33.3193 51.1465 33.3193C51.9505 33.3193 53.2246 33.5049 54.9688 33.876C56.3913 34.1729 57.4984 34.3213 58.29 34.3213Z" fill="white"/>
<path d="M52.6494 10.7568C52.2783 10.6702 52.068 10.4661 52.0186 10.1445C52.0186 9.95898 52.0866 9.77344 52.2227 9.58789C52.4948 9.24154 54.1276 7.74479 57.1211 5.09766C59.7188 2.80924 61.4505 1.36198 62.3164 0.755859C62.7122 0.496094 63.071 0.366211 63.3926 0.366211C64.1471 0.366211 64.6048 0.675456 64.7656 1.29395C64.8027 1.40527 64.8213 1.5166 64.8213 1.62793C64.8213 2.09798 64.5492 2.58659 64.0049 3.09375C63.3245 3.73698 61.5309 5.04818 58.624 7.02734C56.2243 8.67253 54.7585 9.65592 54.2266 9.97754C53.3854 10.4971 52.8597 10.7568 52.6494 10.7568Z" fill="white"/>
<path d="M40.0137 20.2568C39.8034 20.2568 39.6982 20.1393 39.6982 19.9043C39.6982 19.4095 40.1683 18.6735 41.1084 17.6963C42.0609 16.7067 43.0628 15.9583 44.1143 15.4512C44.9925 15.043 45.8089 14.8389 46.5635 14.8389C47.4294 14.8389 48.0231 15.2965 48.3447 16.2119C48.4313 16.4593 48.5055 16.7562 48.5674 17.1025V18.457L48.5859 19.8115L48.8828 19.5146C50.3053 18.1292 51.8825 16.9603 53.6143 16.0078C55.4326 15.0059 57.084 14.5049 58.5684 14.5049C60.3001 14.5049 61.7474 15.1296 62.9102 16.3789C64.0358 17.6035 64.5986 19.1126 64.5986 20.9062C64.5986 22.3783 64.0853 23.9368 63.0586 25.582C62.5143 26.4355 61.8587 27.2458 61.0918 28.0127C58.9518 30.1527 56.8242 31.2474 54.709 31.2969H54.5234C52.569 31.2969 51.5794 30.5485 51.5547 29.0518C51.5547 28.0251 51.9876 27.221 52.8535 26.6396C53.373 26.2809 53.9235 26.1016 54.5049 26.1016C54.9626 26.1016 55.4141 26.2562 55.8594 26.5654C56.3665 26.9242 56.8551 27.1344 57.3252 27.1963C57.5231 27.2334 57.7396 27.252 57.9746 27.252C59.1745 27.252 59.8734 27.0231 60.0713 26.5654C60.3929 25.8604 60.5537 25.0934 60.5537 24.2646C60.5537 22.4092 59.8548 20.9062 58.457 19.7559C58.321 19.6322 58.1787 19.5208 58.0303 19.4219C57.2015 18.8405 56.249 18.5498 55.1729 18.5498C53.874 18.5498 52.4762 19.026 50.9795 19.9785C50.4105 20.3249 49.9961 20.6465 49.7363 20.9434C49.1178 21.6608 48.7406 22.7926 48.6045 24.3389C48.5798 24.6481 48.5241 26.1696 48.4375 28.9033C48.3262 32.5771 47.9736 36.1211 47.3799 39.5352C46.9346 42.0215 46.3161 43.9759 45.5244 45.3984C44.9801 46.3633 44.2627 47.3158 43.3721 48.2559C42.4938 49.1836 41.7393 49.7402 41.1084 49.9258C41.0094 49.9505 40.9229 49.9629 40.8486 49.9629C40.6383 49.9629 40.5332 49.8577 40.5332 49.6475C40.5332 49.3135 40.6816 48.9609 40.9785 48.5898C41.5104 47.9714 41.9062 47.39 42.166 46.8457C42.6484 45.8314 43.0443 44.4521 43.3535 42.708C43.8978 39.5908 44.238 36.1953 44.374 32.5215C44.4854 29.862 44.541 26.4603 44.541 22.3164C44.541 20.597 44.3245 19.5394 43.8916 19.1436C43.7061 18.9704 43.471 18.8838 43.1865 18.8838C42.5186 18.8838 41.9186 19.1064 41.3867 19.5518C40.9661 19.9105 40.6569 20.1208 40.459 20.1826C40.3229 20.2321 40.1745 20.2568 40.0137 20.2568Z" fill="white"/>
<path d="M29.9014 30.9814L18.3789 30.8145C14.2598 30.8145 9.74479 30.9753 4.83398 31.2969C4.57422 31.3092 4.43197 31.2288 4.40723 31.0557C4.39486 31.0309 4.38867 31 4.38867 30.9629C4.38867 30.666 4.54329 30.3135 4.85254 29.9053C5.236 29.3981 5.47103 28.891 5.55762 28.3838C5.66895 27.6292 5.72461 25.4027 5.72461 21.7041C5.72461 19.9971 5.36589 19.0632 4.64844 18.9023C4.56185 18.89 4.47526 18.8838 4.38867 18.8838C3.7207 18.8838 3.1084 19.1126 2.55176 19.5703C2.13118 19.929 1.82194 20.1331 1.62402 20.1826C1.48796 20.2321 1.35189 20.2568 1.21582 20.2568C0.993164 20.2568 0.881836 20.1517 0.881836 19.9414C0.881836 19.3477 1.389 18.556 2.40332 17.5664C3.62793 16.3665 4.91439 15.5439 6.2627 15.0986C6.80697 14.9255 7.30794 14.8389 7.76562 14.8389C8.80469 14.8389 9.44792 15.4635 9.69531 16.7129C9.75716 17.0592 9.78809 17.6283 9.78809 18.4199L9.76953 19.459L10.2334 18.9951C12.7321 16.4964 15.2061 15.0306 17.6553 14.5977C17.8285 14.5729 18.0078 14.5482 18.1934 14.5234H18.6758C20.0241 14.5234 21.1992 15.0553 22.2012 16.1191C22.9681 16.9479 23.5186 18.0179 23.8525 19.3291L24.3535 18.8281C25.9616 17.2201 27.613 16.0326 29.3076 15.2656C30.4209 14.7585 31.4538 14.5049 32.4062 14.5049C33.6432 14.5049 34.7318 14.9564 35.6719 15.8594C36.5749 16.7129 37.1315 17.8262 37.3418 19.1992C37.3665 19.3971 37.3789 19.6631 37.3789 19.9971C37.3789 22.3721 36.2161 24.8275 33.8906 27.3633H34.3916C36.4697 27.3633 37.7562 27.153 38.251 26.7324C38.9189 26.1634 39.457 25.8665 39.8652 25.8418C40.1126 25.8418 40.2363 25.9655 40.2363 26.2129C40.2363 26.6087 39.8962 27.1901 39.2158 27.957C38.0407 29.2806 36.6182 30.1712 34.9482 30.6289C34.639 30.7155 34.3298 30.7835 34.0205 30.833C33.3278 30.932 31.9548 30.9814 29.9014 30.9814ZM19.9561 24.2275C19.9561 23.3245 19.7272 22.3783 19.2695 21.3887C18.3913 19.5085 16.9935 18.5684 15.0762 18.5684C14.099 18.5684 13.0599 18.9395 11.959 19.6816C11.6374 19.8919 11.4023 20.0837 11.2539 20.2568C10.5859 21.0114 10.1283 22.0876 9.88086 23.4854L9.47266 25.7119C9.29948 26.4417 9.05827 27.0726 8.74902 27.6045H8.80469L18.3975 27.1777C18.9665 27.1159 19.3066 26.9736 19.418 26.751L19.6035 26.3057C19.8385 25.6624 19.9561 24.9697 19.9561 24.2275ZM33.334 23.4111C33.334 21.9886 32.8763 20.8073 31.9609 19.8672C31.1074 19.0013 30.0498 18.5684 28.7881 18.5684C27.8727 18.5684 26.9264 18.9147 25.9492 19.6074C25.7513 19.7435 25.5905 19.8734 25.4668 19.9971C25.0215 20.43 24.5329 21.2588 24.001 22.4834C23.3206 24.0667 22.7454 25.2233 22.2754 25.9531C21.9909 26.3861 21.6878 26.8005 21.3662 27.1963H22.5166L29.6602 27.3262C31.2435 27.3262 32.2269 26.9674 32.6104 26.25C32.6227 26.2376 32.6722 26.1387 32.7588 25.9531C33.1423 25.1615 33.334 24.3141 33.334 23.4111Z" fill="white"/>
</svg>
