<?xml version="1.0" encoding="UTF-8"?>
<svg id="Layer_2" data-name="Layer 2" xmlns="http://www.w3.org/2000/svg" viewBox="0 0 565.74 573.17">
  <defs>
    <style>
      .cls-1, .cls-2 {
        fill: #fff;
      }

      .cls-2 {
        fill-rule: evenodd;
      }
    </style>
  </defs>
  <g id="Ebene_2" data-name="Ebene 2">
    <g>
      <g>
        <g id="g2715">
          <path id="path2717" class="cls-1" d="M164.27,81.29s3.03-5.88,10.78-7.9c7.91-2.06,19.38-8.36,20.35-15.6,0,0-2.22,3.92-7.86,5.5,0,0,7.34-13.9.93-18.07-4.94-3.22-11.49,7.63-11.49,7.63,0,0-1.9-4.09-5.65-2.42-4.3,1.92-7.95,10.57-8.81,15.12,0,0-.01-8.44-3.05-9.26-2.42-.64-7.95,11.68-7.95,11.68,0,0-2.14-5.72-6.42-3.8-4.26,1.92-6.51,8.36-7.29,15.01,0,0-1.09-10.02-4.47-7.7,0,0-1.83-9.29,1.6-20.61,3.42-11.3,10.14-14.18,13.52-12.92,3.37,1.27,4.83,6.06,2.08,8.58-2.73,2.54-5.5.88-5.79-.67,0,0,3.31-1.04,3.32-3.18s-1.82-3.91-4.54-2.45c-2.72,1.46-3.5,4.44-1.8,7.74,1.7,3.31,5.74,3.26,9.08,1.5,3.36-1.77,5.64-7.6,2.9-12.77s-6.87-4.96-9.62-3.54c-2.74,1.42-8.37,5.52-11.4,18.22-3.05,12.69-1.33,22.93-1.33,22.93,0,0-1.84,3.83-3.7,10.11,0,0-3.04-4.29-7.21-3.06-4.18,1.23-6.37,7.65-7.6,13.15,0,0-3.12-3.41-7.05-1.46-4.12,2.04-4.27,13.77-4.27,13.77,0,0-2.16-5.37-4.69-4.78-2.52.59-2.7,13.09-2.7,13.09,0,0-1.38-4.25-1.33-6.72.05-2.47-.34-4.14-.34-4.14,0,0-.53,4.08-4.89,8.26-3.59,3.43-7.98,8.06-13.09,15.02-5.12,6.97-7.02,12.08-7.25,20.36,0,0-3.06-1.66-5.28.68-2.95,3.12-2.18,15.97-2.18,15.97,0,0-3.79-3.69-6.97.57-3.99,5.37-.75,15.07-.75,15.07,0,0-3.25-2.47-5.58-.11-2.32,2.36-.46,12.29-.03,13.74,0,0-2.79-3.79-3.98-2.72-1.37,1.23-1.43,9.61,1.06,15.54,0,0-10.45-13.14-15.14-23.32-4.69-10.19-6.97-19.67-3.67-24.39-.29-.37-.44-.56-.73-.93-4.65,9.08-.79,18.35,2.17,27.41,2.94,6.86,7.65,13.93,10.98,18.55,5.61,7.77,10.2,12.59,10.2,12.59,0,0,1.87,4.56,2.8,8.8.94,4.24.69,7.18-4.41,7.03-5.11-.15-11.42-6.09-8.7-12.92,0,0,2.6,2.68,4.14-.09,1.53-2.77-1-4.89-2.56-5.16-3.59-.64-5.13,6.57-3.88,11.15,2.47,9.07,12.46,15.82,17.51,10.99,4.64-4.43-1.27-15.61-1.27-15.61,9.55,10.96,19.57,21.57,28.62,32.95,10.13,13.19,20.39,26.24,31.48,38.65-.03-.56-.05-.84-.08-1.4,0,0-8.31-10.16-9.64-11.76-3.18-3.79-9.99-12.72-14.69-19.07-5.61-7.7-11.17-15.43-17.23-22.78-8.16-9.67-16.26-19.4-24.36-29.13,0,0-2.46-9.01-.86-11.01.9-1.13,12.77,13.45,13.82,18.32,0,0,1.1-.99.17-4.71-.93-3.73-2.83-6.95-5.31-10.11-2.51-3.18-6.87-11.65-2.92-14.5,3.6-2.59,13.63,6.94,10.07,12.04,0,0-2.44-2.99-4.23-1.73-1.81,1.25-1.19,3.43.96,5.29s5.76,1.98,6.19-2.2c.43-4.18-1.3-12.54-8.67-18.05,0,0-1.71-9.8,1.24-11.98,2.95-2.18,15.49,6.46,10.84,11.86,0,0-3.23-4.38-5.43-2.58-2.73,2.21,1.89,7.91,5.48,6.54,3.59-1.37,3.8-7.08,1.45-12.07-2.35-4.98-4.32-6.56-6.33-7.83,0,0-1.15-12,3.34-12.19,3.39-.13,8.25,8.48,9.58,17.96.47-1,.72-1.5,1.2-2.49,0,0-1.19-6.2,2.27-8.05,3.45-1.84,12.08,5.74,14.85,13.1,4.12,11.78,6.65,24.07,8.98,36.31.14-.39.21-.58.35-.97-1.81-12.74-3.33-25.92-7.83-38.04-4.59-11.09-13.25-17.34-16.54-16.7-3.04.6-4.09,6.3-4.09,6.3,0,0-1.43-7.06-5.02-11.65,0,0-.43-6.39,4.93-13.16,0,0,.52,15.97,8.89,16.47,8.44.51,5.48-14.38,5.48-14.38,0,0,3.39,3.42,6.19.8,2.79-2.6,2.43-9.43,2.43-9.43,6.95,14.23,12.55,29.06,17.92,43.94,5,14.27,10.45,28.37,15.52,42.61.18-.46.27-.68.45-1.14-5.39-14.77-10.68-29.53-15.62-44.46-5.99-17.74-12.18-35.5-19.64-52.69,0,0-.52-8.93,1.7-9.78,1.72-.66,5.04,6.59,5.6,8.21,4.58,10.91,8.95,21.91,12.86,33.08,5.48,15.81,11.17,31.56,16.39,47.46.23-.44.35-.65.59-1.08-5.15-15.16-9.77-30.48-14.65-45.72-4.38-12.72-8.8-25.43-13.7-37.96,0,0-1.39-9.68,1.38-12.01,2.75-2.34,5.9-1.54,8.45,2.62,2.55,4.15,2.29,8.02-.3,10.07,0,0-.21-3.28-3.39-2.73-2.62.45-1.69,5.8.91,6.58,3.5,1.04,6.94-2.81,6.95-8.4,0-5.6-.99-8-3.1-11.21,0,0,.88-10.18,6.22-10.33,5.48-.14,9.12,12.64,4.99,15.31,0,0,.87-4.32-2.73-4.44-3.38-.12-2.68,6.3,1.06,7.31,3.74,1.02,5.96-3.56,6.41-6.83.6-4.3-.2-7.55-1.79-11.11,0,0,1.96-9.02,4-9.22,2.03-.21,4.97,10.03,5.09,19.98,0,0,1.07-2.75,1.97-4.1.87-1.37.82-2.68.24-4.51-.56-1.81-1.15-5.32-1.15-5.32,0,0,.21-11.99,5.81-13.58,3.54-1.01,8.73,12.7,3.83,15.14,0,0,.23-3.79-2.49-3.84s-3.56,6.72.37,7.16c3.93.46,7.06-4.65,7.25-9.17s-1.61-8.95-1.61-8.95c0,0,2.85-7.87,5.08-8.16,2.22-.29,3.64,12.07,4.04,16.17,1.09,10.07,1.73,20.17,1.8,30.3.14,10.58.37,21.14.67,31.71.44-.35.66-.53,1.11-.88-.54-10.3-.43-20.6-.23-30.9.16-17.92-.53-27.25-.53-27.25ZM86.3,136.77s1.15,10.52-3.8,9.5c-5.55-1.14-8.4-8.46-6.89-13.35,0,0,4.09-4.36,6.54-7.93,0,0,.29,8.12,4.15,11.77ZM91.51,118.06c.99,2.25,2.64,5.44,3.05,8.43.45,3.3-.5,6.16-2.41,7.42-1.54,1.03-4.23-1.43-5.93-4.07-1.99-3.07-2.41-6.93-2.41-6.93,0,0,.99-1.98,2.72-3.49,2.02-1.74,3.26-3.38,3.77-4.74,0,0,.36,1.46,1.2,3.39ZM177.75,55.85s3.54-8.47,7.5-5.6c5.83,4.24.01,14.17.01,14.17-4.73,2.66-9.72,3.42-9.72,3.42,3.68-8.44,2.2-12,2.2-12ZM164.46,64.69c1.18-5.8,5.14-10.37,7.58-9.3,6.58,2.89,1.13,13.65,1.13,13.65-4.81,1.51-9.11,8.36-9.11,8.36-.58-2.52-.58-7.87.4-12.71Z"/>
        </g>
        <g id="g2719">
          <path id="path2721" class="cls-1" d="M311.15,24.04c-1.35.27-2.02.41-3.36.69-4.41,6.07-20.44,2.5-20.44,2.5,3.89-7.13,12.55-15.64,18.12-19.16,5.57-3.52,11.19-4.02,14.43-1.32,3.24,2.7,2.27,6.05.88,7.38-1.38,1.34-3.97,2.86-6.8,1.29-2.86-1.56-1.74-3.59-1.74-3.59,1.45,2.26,3.36,1.53,4.7.35,1.01-.89,2.06-2.6.7-4.11-3.49-3.83-13.1,4.19-5.94,9.61,3.54,2.7,8.22.95,11.62-2.34,2.54-2.45,5.24-8.43,2.01-12.1-5.44-6.16-17.77,1.43-17.77,1.43-4.25-4.18-9.84-4.15-16.53,2.63-7.34,7.48-13.2,18.7-13.2,18.7-9.07-1.11-12.35.9-16.34,2.85-3.99,1.96-8.64,1.5-15.1,1.09-6.45-.4-11.57.86-11.57.86,3.68-10.03,10.64-18.14,14.81-22.07,4.16-3.93,9.2-5.82,12.43-4.65,3.23,1.18,5.7,4.84,2.13,8.16-2.97,2.75-7.24-.53-7.24-.53,4.36-.22,6.52-4.44,3.73-6.09-2.78-1.65-4.88.76-5.62,2.06-.75,1.31-2.94,5.39,1.31,7.59,3.4,1.75,7.99.54,10.4-2,2.99-3.15,4.55-8.38,1-11.42-4.38-3.78-12.71-1.89-21.11,7.38-8.42,9.27-13.96,22.37-13.96,22.37-6.98,3.35-12.56,9.03-12.56,9.03,0,0-.66-5.92-5-5.08-8.39,1.62-13.2,13.08-13.2,13.08,1.38-8.73-.43-9.99-3.36-7.35-2.92,2.65-5.44,6.08-6.36,7.91-.44.87-.43,1.46-.07,1.62.57.25,1-.18,1.37-.91.77-1.55,3.42-5.09,4.61-4.45,1.28.68.66,6.86.2,12.79-.93,15.03-4.12,29.83-6.35,44.7-1.86,13.73-3.32,27.51-5.1,41.25.35-.23.52-.34.87-.57,2.18-20.29,5.89-40.22,9.46-60.29,1.43-8.06,2.59-16.24,3.26-21.13.49-3.53.81-4.64.81-4.64,2.54-11.03,7.14-15.66,10.59-17.13,3.45-1.48,5.51,1.18,4.6,8-.75,5.57-3.76,6.93-3.76,6.93-1.45-3.9-3.42-3.61-4.67-2.02-1.07,1.37-1.09,4.02.26,4.95,2.44,1.69,5.22,1.23,8.68-3.92,3.47-5.15,3.36-11.8,3.36-11.8,8.27-9.18,17.04-8.02,17.04-8.02-8.66,7.99-22.84,23.04-9.27,33.98,6.29,4.61,14.87,2.85,20.05-2.4,7.17-7.24,4.81-13.51,4.81-13.51,6.95-3.74,12.31-11.15,12.31-11.15,0,0-1.18,6.89,4.54,6.93,6.97.06,13.55-7.29,13.55-7.29-5.96,13.26-12.14,26.43-18.33,39.58-4.73,9.97-8.68,17.23-11.54,22.6-3.52,6.67-5.49,10.25-5.49,10.25.39-.08.59-.12.99-.19,10.35-18.26,20.38-36.7,29.43-55.64,4.34-8.82,8.75-17.59,13.47-26.21,11.92,1.06,19.28-7.45,19.28-7.45ZM285.7,16.28c4.96-6.84,9.17-9.75,12.05-10.34,2.85-.6,5.11,1.98,5.11,1.98-7.19,4.19-17.3,18.87-17.3,18.87-2.48-.33-3.73-.49-6.24-.77,0,0,1.41-2.91,6.37-9.74ZM260.81,44.43c-3.89,4.41-8.13,6.64-8.13,6.64,0,0-.42-3.91-3.22-5.86-3.45-2.44-5.69-.74-6.92,1.46-1.23,2.2-1.01,5.69,1.95,7.43,2.96,1.75,6.44-.04,6.44-.04.78,3.68-.91,6.7-3.25,8.75-4.14,3.62-9.91,5.21-15.7,1.97-7.27-4.07-7.87-12.53-3.23-19.46,4.65-6.94,11.07-9.94,13.3-10.38,2.23-.44,4.79.39,8.93-.16,4.13-.56,6.19-2.33,10.22-4.35,4.02-2.04,10.96-1.03,10.96-1.03-2.43,3.62-7.44,10.61-11.35,15.03ZM250.44,52.06c-5.42,1.2-7.28-3.36-6.54-4.52.74-1.16,2.05-1.19,3.77.08,2.3,1.73,2.78,4.44,2.78,4.44ZM288.5,31.38c-1.08,1.97-1.61,2.97-2.65,4.95,0,0-10.26,12.82-14.88,6.33-3.87-5.4,4.59-13.23,4.59-13.23,0,0,7.28,1.5,12.94,1.96Z"/>
        </g>
        <g id="g2723">
          <path id="path2725" class="cls-1" d="M300.13,45.37c.06-.97-.14-2.92-2.01-3.01-1.87-.09-3.06,1.49-3.13,2.84-.06,1.35.72,2.86,2.37,2.93,1.59.07,2.69-1.8,2.76-2.77Z"/>
        </g>
        <g id="g2727">
          <path id="path2729" class="cls-1" d="M206.89,31.02c.6.28,1.79-.76,2.58-3.6.78-2.84.5-8.33-1.32-9.01-1.46-.54-2.8,1.99-2.67,2.85.26,1.72,2.19,1.4,1.97,5.69-.14,2.45-1.34,3.71-.56,4.08Z"/>
        </g>
        <g id="g2731">
          <path id="path2733" class="cls-1" d="M211.74,27.06c1.31.08,1.68-2.8,1.99-4.57.29-1.77,1.55-4.6,2.2-6.1.67-1.52.83-4.07-.09-4.21-.91-.12-1.5.78-2.51,2.62-1.01,1.84-.76,4.64-1.14,7.74-.27,2.18-1.62,4.46-.45,4.52Z"/>
        </g>
        <g id="g2735">
          <path id="path2737" class="cls-1" d="M215.19,22.82c-.48,2.4-.59,2.59-.58,4.2,0,1.61,1.78,1.6,1.85-.71.05-1.47,1.55-4.5,2.77-5.45,1.47-1.15,3.18-4,.96-4.59-2.24-.61-4.52,4.14-5,6.55Z"/>
        </g>
        <g id="g2739">
          <path id="path2741" class="cls-1" d="M52.02,150.93c.63-.23.74-1.9-.69-4.63-1.43-2.73-5.49-6.62-7.27-5.79-1.43.69-.61,3.59.08,4.14,1.39,1.1,2.56-.6,5.41,2.8,1.62,1.95,1.64,3.81,2.47,3.48Z"/>
        </g>
        <g id="g2743">
          <path id="path2745" class="cls-1" d="M52.72,144.34c1-.92-.76-3.36-1.77-4.9-1.04-1.53-2.12-4.58-2.69-6.19-.59-1.61-2.27-3.65-3.02-3.07-.75.59-.54,1.68.03,3.8.56,2.13,2.71,4.03,4.61,6.64,1.34,1.83,1.97,4.53,2.85,3.72Z"/>
        </g>
        <g id="g2747">
          <path id="path2749" class="cls-1" d="M52.23,138.61c1.33,2.16,1.39,2.38,2.53,3.57,1.14,1.19,2.4-.11.83-1.89-1-1.13-2.04-4.51-1.82-6.11.27-1.96-.5-5.3-2.53-4.12-2.04,1.17-.36,6.4,1,8.54Z"/>
        </g>
        <g id="g2751">
          <path id="path2753" class="cls-1" d="M27.55,218.7c.54-.46.21-2.26-1.88-4.65-2.09-2.4-6.99-5.2-8.48-3.74-1.19,1.18.36,3.95,1.17,4.32,1.62.71,2.29-1.45,5.91,1.21,2.06,1.51,2.57,3.47,3.28,2.87Z"/>
        </g>
        <g id="g2755">
          <path id="path2757" class="cls-1" d="M26.49,211.55c.71-1.28-1.6-3.27-2.98-4.56-1.4-1.28-3.23-4.11-4.2-5.6-.98-1.5-3.12-3.09-3.69-2.26-.57.85-.08,1.92,1.02,3.96s3.66,3.34,6.16,5.47c1.76,1.5,3.07,4.13,3.7,3Z"/>
        </g>
        <g id="g2759">
          <path id="path2761" class="cls-1" d="M24.51,205.71c1.84,1.82,1.95,2.05,3.36,2.93s2.27-.87.29-2.24c-1.25-.86-3.14-4.06-3.34-5.79-.26-2.11-1.86-5.36-3.5-3.5-1.65,1.86,1.33,6.78,3.19,8.59Z"/>
        </g>
        <g id="g2763">
          <path id="path2765" class="cls-1" d="M355.17,28.7c.36.54,1.93.23,4.16-1.83,2.23-2.05,4.99-6.9,3.81-8.38-.97-1.19-3.5.33-3.84,1.13-.72,1.6,1.11,2.28-1.42,5.85-1.45,2.03-3.18,2.52-2.7,3.23Z"/>
        </g>
        <g id="g2767">
          <path id="path2769" class="cls-1" d="M361.47,27.7c1.07.71,2.97-1.58,4.17-2.95,1.22-1.37,3.84-3.19,5.23-4.15,1.39-.97,2.92-3.09,2.22-3.66-.72-.56-1.7-.07-3.59,1.01-1.87,1.09-3.17,3.61-5.18,6.08-1.43,1.74-3.83,3.03-2.86,3.66Z"/>
        </g>
        <g id="g2771">
          <path id="path2773" class="cls-1" d="M366.72,25.75c-1.72,1.82-1.91,1.93-2.78,3.32-.86,1.39.64,2.24,1.95.29.83-1.24,3.78-3.1,5.35-3.31,1.89-.27,4.89-1.86,3.31-3.47-1.56-1.62-6.11,1.33-7.83,3.17Z"/>
        </g>
        <g id="g2775">
          <path id="path2777" class="cls-1" d="M415.65,51.83c.22.61,1.83.69,4.5-.78,2.66-1.47,6.53-5.55,5.75-7.27-.64-1.39-3.46-.52-4,.18-1.09,1.39.51,2.5-2.83,5.37-1.89,1.64-3.69,1.7-3.42,2.51Z"/>
        </g>
        <g id="g2779">
          <path id="path2781" class="cls-1" d="M422.01,52.38c.86.95,3.27-.82,4.78-1.86,1.52-1.05,4.5-2.19,6.08-2.79,1.59-.61,3.6-2.3,3.06-3.03-.56-.73-1.64-.49-3.71.12-2.09.6-3.98,2.75-6.54,4.67-1.81,1.35-4.44,2.04-3.67,2.88Z"/>
        </g>
        <g id="g2783">
          <path id="path2785" class="cls-1" d="M427.59,51.76c-2.12,1.36-2.33,1.42-3.52,2.57-1.18,1.15.06,2.35,1.82.77,1.12-1,4.43-2.11,5.99-1.93,1.91.22,5.21-.6,4.07-2.58-1.12-1.97-6.25-.19-8.36,1.18Z"/>
        </g>
        <g id="g2787">
          <path id="path2789" class="cls-1" d="M527.1,178.81c-.21.7,1.01,1.96,3.99,2.68,2.97.7,8.48.03,8.93-2.07.35-1.7-2.39-3.04-3.24-2.84-1.7.4-1.12,2.57-5.48,2.6-2.48,0-3.93-1.27-4.2-.36Z"/>
        </g>
        <g id="g2791">
          <path id="path2793" class="cls-1" d="M531.75,184.06c.09,1.47,3.05,1.73,4.86,1.96,1.83.23,4.85,1.5,6.44,2.16,1.61.68,4.21.7,4.23-.36.01-1.06-.97-1.68-2.96-2.72-1.99-1.05-4.78-.59-7.95-.83-2.24-.17-4.71-1.56-4.62-.21Z"/>
        </g>
        <g id="g2795">
          <path id="path2797" class="cls-1" d="M536.48,187.72c-2.48-.41-2.69-.51-4.31-.41-1.62.13-1.38,2.13.96,2.08,1.49-.04,4.74,1.51,5.84,2.87,1.35,1.63,4.41,3.45,4.74.84.33-2.63-4.75-4.98-7.24-5.38Z"/>
        </g>
        <g id="g2799">
          <path id="path2801" class="cls-1" d="M540.47,261.52c-8.65-5.23-6.79-19.29-6.52-27.76.01-10.94-1.74-19.79-1.74-19.79,10,4.49,18.69,11.56,24.82,20.68,5.36,7.86,4.4,12.18,3.56,14.56-.85,2.41-2.86,4.79-6.01,3.49-2.29-.94-4.08-4.48-3.47-7.99.61-3.47,2.77-2.18,2.77-2.18-1.1,6.08,3.55,6.89,4.73,4.19,1.19-2.69-.33-5.47-1.59-6.65-1.28-1.19-6.38-4.88-8.41,1.47-2.29,7.2,1.83,11.86,3.89,13.98,2.07,2.11,8.93,6.51,12.49-.8,3.16-11.1-4.3-18.9-10.52-26.97-6.56-6.82-14.44-12.24-22.86-16.5-3.76-11.91-10.82-18.9-10.82-18.9,0,0,5.29-1.73,3.27-6.46-3.41-7.95-13.66-12.95-13.66-12.95,3.49.18,8.82-.31,7.74-2.96-1.08-2.65-11.97-9.03-11.97-9.03,0,0,6.04-1.52,3.46-7.54-2.59-6.02-9.46-8.33-9.46-8.33,1.06-.51,3.28-2.64.78-7.12-2.51-4.49-13.96-7.96-13.96-7.96,1.61-.24,6.75-1.71,6.03-3.52-1.26-3.11-13.05-6.75-13.05-6.75,4.16-1.23,7.05-1.04,7.05-1.04-6.93-13.34-19.48-24.58-34.53-27.36,3.74-1.46,9.76-2.22,9.76-2.22-1.7-1.71-2.94-.09-7.36-3.15-4.39-3.06-10.21-9.96-18.99-15.05-8.77-5.07-19.91-4.73-19.91-4.73.97-.79,4.18-5.17.83-6.81-3.35-1.65-16.37-.14-16.37-.14,0,0,3.69-4.67,1.21-7.51-3.05-3.48-13.51-.77-13.51-.77,0,0,1.65-4.06-.92-5.92-4.44-3.22-14.2,1.41-14.2,1.41,0,0,4.7-4.01,3.18-5.57-1.53-1.56-7.91.81-7.91.81,7.93-7.11,16.6-15.1,26.9-18.62,7.51-2.56,11.59.15,11.59.15.53-.35.79-.52,1.31-.86-7.31-3.16-17.33-.66-25.17,4.36-8.48,5.92-16.65,11.9-24.15,19.03-11.17,6.01-15.23,4.54-16.93,3.23-1.71-1.3-1.54-7.88,2.32-10.89,4.44-3.43,7.66-.75,7.66-.75,0,0-2.42,2.07-.93,3.56.74.77,2.26,1.01,3.91,0,1.65-1.01,2.56-3.34.9-5.52-2.55-3.33-11.65-.46-15.73,3.76-4.07,4.23-5.26,9.84-3.33,12.5,4,5.55,18.96-2.88,18.96-2.88-12.74,12.74-24.88,26.11-37.39,39.08-7.89,8.15-15.63,16.48-23.85,24.3.4.02.6.03,1,.05,8.48-7.66,16.29-16.07,24.49-24.04,8.69-8.17,17.25-16.43,25.66-24.9,9.57-9.9,17.56-17.02,19.34-18.16,1.79-1.15,5.35-2.2,5.69-1.34.32.86-1.6,3.16-5.99,7.49-4.38,4.34-8.12,6.77-8.12,6.77,0,0,4.75.28,9.03-4.19,8.32-8.66,16.56-7.22,17.15-5.51.64,1.92-.25,5.33-4.57,8.98-5.24,4.43-6.89,1.9-6.89,1.9,0,0,3.83-1.11,2.7-4-1.82-4.67-7.78,1.77-6.47,4.21,1.98,3.63,5.28,3.49,10.74.98,5.46-2.48,8.73-7.01,8.73-7.01,9.79-2.73,10.98,1.54,6.86,7.51-3.45,4.99-7.06,4.14-7.06,4.14,0,0,1.75-.96.54-3.32-1.69-3.29-6.42.43-5.79,3.21.53,2.37,2.3,3.74,8.56,1.71,6.25-2.04,8.66-5.46,8.66-5.46,0,0,14.68-1.58,13.28,2.27-2.19,5.92-17.62,9.25-17.62,9.25.98.48,1.47.72,2.44,1.21,1.97-.31,4.89.31,5.83,1.41s3.42,8.44-14.51,17.17c-11.76,5.73-23.47,11.58-35.31,17.14.5.18.74.27,1.24.45,16.64-7.45,43.25-13.32,53.94-29.55,4.45-7.86-6.28-8.22-6.28-8.22,7.59-1.77,13.15-5.01,13.15-5.01,10.84.93,15.77,4.49,15.77,4.49,0,0-14.54.89-16.21,7.54-1.88,7.48,11.57,7.2,11.57,7.2-2.72,8.47,12.46,7.65,12.46,7.65-11.81,5.2-23.54,10.53-35.22,16.02-13.78,6.24-27.69,12.2-41.77,17.76.3.14.45.21.75.35,14.13-6.05,28.57-11.36,42.76-17.29,14.93-6.39,29.92-12.62,45.01-18.63,7.14,1.36,12.14,4.61,12.14,4.61,0,0-14.7-1.03-17.07,5.71-2.38,6.74,10.99,8.25,10.99,8.25-3.67,7.38,7.51,9.12,7.51,9.12-11.51,2.17-22.99,4.53-34.49,6.81-16.86,3.27-33.6,6.81-50.21,11.19.37.23.55.34.91.57,17.45-4.47,35.14-7.46,52.92-10.32,14.58-2.44,29.22-4.73,43.68-7.82,5.32,1.21,10.73,3.34,10.54,4.61-.19,1.29-3.66,2.24-7.92,2.93-14.49,2.36-29,4.52-43.44,7.21-13.74,2.76-27.43,5.71-41.12,8.72.3.23.44.35.74.58,12.37-2.75,24.79-4.99,37.3-7.01,11.49-1.68,23.07-2.83,34.52-4.73,0,0,4.19.63,6.95,4.24,4.35,5.69,4.25,12.78,9.75,18.87,9.2,10.21,14.28,10.7,14.28,10.7-8.58-6.28-9.28-9.76-9.28-9.76,8.87,4.95,16.25,4.73,16.25,4.73,4.56,2.1,8.07,5.19,7.61,6.86-.46,1.66-8.47,1.57-14.54,1.22-15.18-.85-30.37-1.35-45.56-1.97-12.94-.4-25.82-.36-38.76-.23.25.29.38.44.63.73,17.79-.57,35.47.83,53.19,2.12,12.88.85,25.76,1.86,38.64,2.82,11.29,3.82,12.78,10.75,12.27,12.24-.5,1.5-3.2,5.14-9.92,2.61-6.73-2.52-5.15-5.68-5.15-5.68,0,0,1.72-.37,2.53-1.97,1.28-2.56-4.6-6.01-6.88-1.4-2.13,4.29,2.4,7.89,8.25,11.34,5.84,3.44,11.88,2.68,11.88,2.68,11.01,11.58,9.96,25.24,9.96,25.24-7.64-10.84-19.74-24.52-34.32-15.88-6.1,4.22-5.93,14.65-.53,23.97,5.41,9.33,13.8,13.15,18.25,11.62,4.45-1.56,6.28-8.29,3.73-13.73-2.54-5.44-8.95-4.16-7.9-.03,1.05,4.14,5.71,2.09,5.71,2.09,2.95,4.48-2.24,11.61-9.69,7.72-7.45-3.89-9.86-14.32-8.74-21.52,1.13-7.21,7.17-13.66,19.31-7.05,11.68,6.36,14.45,19.48,14.45,19.48,0,0-.4,14.58,1.41,22,3.56,14.76,11.37,20.15,11.37,20.15-.64-2.25-.97-3.34-1.63-5.52ZM427.32,84.87s-8.57-.44-7.67-4.41c.88-3.77,9.2-8.6,16.04-5.64,0,0,3.64,2.73,6.44,5.34,0,0-10.33.41-14.82,4.71ZM441.48,92.8s-10.11-1-10.25-5.07c-.13-3.49,9.75-6.51,13.32-5.56,0,0,4.18,3.58,9.74,5.93,0,0-5.03,1.38-12.82,4.7ZM457.71,109.44s-7.99-1.69-7.31-5.31c.58-3.13,8.17-7.24,14.86-4.39,0,0,5.05,3.75,7.79,7.23,0,0-11.54-1.98-15.34,2.47ZM467.2,119.02s-6.54-2.21-6.7-5.57c-.15-3.3,8.76-5.61,14.34-4.11,0,0,3.16,3.55,4.98,7.4-5.1.79-7.62,1.25-12.62,2.28ZM481.68,143.03s-4.07-7.78-10.11-10.45c3.91-.64,5.88-.93,9.85-1.42,0,0,4.83.38,9,1.98,3.92,1.5,7.47,4.54,5.78,7.6-1.22,2.18-4.19,2.91-6.74,3.06-3.84.24-7.78-.77-7.78-.77ZM487.24,154.45s-2.21-4.79-4.59-9.62c0,0,10.06,3.69,15.39,1.4,0,0,9.3,4.43,6.3,8.75-2.66,3.87-11.84,3.1-17.09-.54Z"/>
        </g>
        <g id="g2803">
          <path id="path2805" class="cls-1" d="M507.23,141.99c3.16,7.7,6.79,13.17,9.41,15.25,2.63,2.07,9.08,3.58,7.79.53s-5.14-1.06-5.14-1.06c-4.67-4.78-4.28-8.69-9.04-18.48-2.78-5.73-6.79-9.01-9.59-11.07-5.67-4.15-9.16-2.88-9.16-2.88,7.73,2.89,12.57,10.02,15.73,17.72Z"/>
        </g>
        <g id="g2807">
          <path id="path2809" class="cls-1" d="M512.67,140.12c.26.84,3.07,2.2,4.83,2.15,1.76-.07,5.66,1.2,7.13,2.02,1.47.82,3.01,1.23,2.27-.29-.71-1.52-3.1-3.59-4.88-3.69-1.78-.12-5.27.08-6.61-.41-2.19-.79-2.99-.61-2.74.22Z"/>
        </g>
      </g>
      <g>
        <g id="g2811">
          <path id="path2813" class="cls-1" d="M272.9,557.27c-.43-.43-1.78.18-3.33,2.55-1.55,2.38-3,7.48-1.64,8.6,1.11.93,3.04-1.02,3.19-1.83.31-1.64-1.47-1.9.05-5.76.87-2.19,2.31-3,1.73-3.56Z"/>
        </g>
        <g id="g2815">
          <path id="path2817" class="cls-1" d="M267.49,559.49c-1.1-.43-2.32,2.09-3.12,3.62-.8,1.53-2.75,3.78-3.78,4.97-1.03,1.19-1.95,3.5-1.2,3.87.76.37,1.53-.28,2.97-1.7,1.44-1.41,2.08-4.04,3.36-6.76.9-1.91,2.77-3.61,1.77-4Z"/>
        </g>
        <g id="g2819">
          <path id="path2821" class="cls-1" d="M263.21,562.41c1.15-2.06,1.3-2.22,1.78-3.69.48-1.47-1.04-1.95-1.8.13-.5,1.33-2.72,3.69-4.07,4.21-1.63.65-3.96,2.77-2.23,3.94,1.75,1.18,5.17-2.52,6.32-4.59Z"/>
        </g>
        <g id="g2823">
          <path id="path2825" class="cls-1" d="M37.24,394.87c.21-.65-.92-1.81-3.75-2.44-2.84-.62-8.11.05-8.55,1.99-.38,1.58,2.22,2.78,3.02,2.59,1.62-.38,1.11-2.37,5.29-2.44,2.37-.03,3.71,1.14,3.99.3Z"/>
        </g>
        <g id="g2827">
          <path id="path2829" class="cls-1" d="M32.92,390.07c-.07-1.37-2.88-1.57-4.62-1.77-1.73-.2-4.6-1.32-6.12-1.91-1.52-.6-4.01-.6-4.04.37-.02.99.9,1.54,2.79,2.48,1.89.93,4.56.47,7.58.67,2.12.14,4.46,1.38,4.41.15Z"/>
        </g>
        <g id="g2831">
          <path id="path2833" class="cls-1" d="M28.46,386.75c2.37.35,2.57.45,4.12.33,1.54-.12,1.34-1.97-.88-1.9-1.42.05-4.51-1.34-5.54-2.57-1.27-1.49-4.17-3.11-4.52-.71-.35,2.41,4.46,4.52,6.83,4.85Z"/>
        </g>
        <g id="g2835">
          <path id="path2837" class="cls-1" d="M429.26,517.88c-.62-.13-1.38,1.1-1.3,3.9.09,2.8,1.85,7.8,3.65,8,1.46.18,1.93-2.47,1.6-3.23-.7-1.52-2.34-.78-3.32-4.79-.55-2.28.18-3.72-.63-3.88Z"/>
        </g>
        <g id="g2839">
          <path id="path2841" class="cls-1" d="M426.03,522.62c-1.18.24-.73,2.97-.49,4.67.22,1.69-.1,4.6-.27,6.13-.17,1.54.41,3.93,1.25,3.84.85-.1,1.11-1.05,1.5-2.98s-.62-4.45-1.15-7.38c-.36-2.07.21-4.48-.84-4.28Z"/>
        </g>
        <g id="g2843">
          <path id="path2845" class="cls-1" d="M424.15,527.33c-.24-2.32-.2-2.53-.65-4.01-.45-1.47-2.01-1.06-1.43,1.08.37,1.36-.13,4.51-.95,5.66-.99,1.41-1.7,4.4.43,4.45,2.14.05,2.85-4.84,2.61-7.17Z"/>
        </g>
        <g id="g2847">
          <path id="path2849" class="cls-1" d="M453.4,501.55c-.63-.06-1.26,1.26-.86,4.04.41,2.79,2.72,7.58,4.51,7.59,1.47.02,1.64-2.68,1.22-3.39-.86-1.44-2.39-.53-3.82-4.42-.8-2.22-.23-3.74-1.05-3.81Z"/>
        </g>
        <g id="g2851">
          <path id="path2853" class="cls-1" d="M450.71,506.64c-1.14.36-.39,3.05.03,4.71.41,1.67.42,4.6.41,6.15,0,1.55.84,3.88,1.68,3.69.83-.19.99-1.16,1.15-3.14.17-1.98-1.11-4.38-1.95-7.25-.58-2.02-.28-4.5-1.32-4.17Z"/>
        </g>
        <g id="g2855">
          <path id="path2857" class="cls-1" d="M449.37,511.54c-.5-2.29-.47-2.51-1.1-3.93-.61-1.42-2.12-.83-1.31,1.23.51,1.32.38,4.51-.31,5.75-.83,1.51-1.2,4.58.92,4.39,2.14-.19,2.3-5.15,1.8-7.44Z"/>
        </g>
        <g id="g2859">
          <path id="path2861" class="cls-1" d="M527.23,408.29c-.58.25-.56,1.83,1.03,4.3,1.59,2.48,5.77,5.92,7.37,5.02,1.32-.73.27-3.4-.41-3.88-1.41-.94-2.37.71-5.36-2.32-1.7-1.72-1.87-3.46-2.62-3.13Z"/>
        </g>
        <g id="g2863">
          <path id="path2865" class="cls-1" d="M527.1,414.52c-.86.92,1,3.1,2.11,4.49,1.1,1.39,2.4,4.18,3.09,5.66.69,1.48,2.47,3.29,3.12,2.7.65-.59.37-1.6-.36-3.57-.72-1.97-2.92-3.63-4.93-5.96-1.41-1.65-2.25-4.15-3.02-3.33Z"/>
        </g>
        <g id="g2867">
          <path id="path2869" class="cls-1" d="M528.08,419.87c-1.46-1.93-1.54-2.15-2.72-3.2-1.17-1.06-2.25.24-.62,1.82,1.05,1,2.33,4.12,2.25,5.64-.07,1.84.95,4.94,2.76,3.72,1.82-1.23-.22-6.04-1.68-7.98Z"/>
        </g>
        <g id="g2871">
          <path id="path2873" class="cls-1" d="M545.71,345.89c-.5.44-.12,2.09,1.99,4.26,2.11,2.17,6.94,4.61,8.27,3.21,1.11-1.14-.53-3.68-1.3-3.97-1.57-.61-2.12,1.41-5.71-.94-2.03-1.34-2.6-3.14-3.25-2.56Z"/>
        </g>
        <g id="g2875">
          <path id="path2877" class="cls-1" d="M547.03,352.51c-.61,1.22,1.68,2.99,3.07,4.14,1.38,1.15,3.28,3.73,4.29,5.09s3.14,2.76,3.63,1.96c.5-.81-.01-1.78-1.17-3.65-1.16-1.87-3.66-3-6.14-4.89-1.74-1.33-3.13-3.74-3.68-2.66Z"/>
        </g>
        <g id="g2879">
          <path id="path2881" class="cls-1" d="M549.2,357.87c-1.85-1.63-1.98-1.83-3.36-2.61-1.38-.78-2.11.9-.18,2.09,1.24.76,3.2,3.67,3.48,5.28.36,1.95,2.05,4.93,3.52,3.14,1.48-1.79-1.61-6.26-3.47-7.9Z"/>
        </g>
        <g id="g2883">
          <path id="path2885" class="cls-1" d="M490.51,454.76s-.27-1.2,3.24-6.07c9.37-11.49,20.71-23.77,17.85-39.94,0,0,4.38,3.48,6.85-.68,1.08-1.82.8-4.56.49-7.59-.4-3.87-1.11-7.9-1.11-7.9,0,0,3.78,2.45,6.76.23,2.99-2.22.45-10.94-.71-13.05,0,0,3.38,1.77,5.2-.64,1.81-2.42.02-10.31-1.47-13.51,0,0,3.61,3.48,4.82,1.86,1.2-1.64-.1-8.98-2.54-13.79,0,0,6.52,6.07,12.61,13.98,6.54,7.8,12.04,17.95,9.2,28.4.31.65.46.97.77,1.62,4.64-10.5-2.76-21.92-7.66-30.79-5.58-7.69-11.92-14.85-19.1-21.1,0,0-6.82-10.58-2.56-13.36,4.66-3.07,15.55,3.53,12.6,10.08,0,0-1.81-2.02-3.33-.47-1.51,1.54.91,7.2,3.45,4.99,2.54-2.2,4.26-8.95-2.88-16.23-7.14-7.26-11.96-4.08-13.43-2.28-1.47,1.8-1.73,6.1,2.26,13.15-10.26-9.71-20.42-19.51-30.49-29.41-9.65-9.85-18.78-20.22-27.84-30.62.03.55.05.82.08,1.37,9.19,10.5,18.23,21.15,27.6,31.5,11.63,12.36,23.87,24.07,35.62,36.3,0,0,4.8,8.06,2.86,10.8-.77,1.09-4.4-3.09-7-5.69-2.61-2.61-6.53-6.35-7.41-9.02,0,0-1.03,2.26,2.77,8.03,0,0,11.73,11.37,8.88,18.02-1.28,3-4.16,1.13-7.22-.95-3.7-2.52-6.09-4.99-4.88-9.66,0,0,2.73,3.47,4.4.45,1.69-3.02-4.14-6.52-6.22-2.85-2.1,3.68-.25,13.28,8.26,18.3,0,0,4.05,6.75.76,9.39-2.82,2.27-14.7-4.88-12.02-9.65,0,0,2.4,2.74,4.13,1.06,1.96-1.9-2.81-7.83-5.54-3.57-3.27,5.09,3.33,14.4,7.67,16.4,0,0,.53,4.05.97,8.09.33,3.1-.85,5.29-3.36,4.61-4.01-1.09-9.08-9.15-10.85-15.1-.24.58-.36.87-.6,1.45,0,0,3.29,8.58-1.75,9.55-10.7-1.41-16.98-14.88-20.84-23.61-4.34-9.18-8.86-18.28-12.72-27.68-.16.58-.24.87-.4,1.45,5.78,13.48,10.94,27.54,18.52,40.13,4.75,6.47,14.42,22.75,20.61,8.72,0,0,1.31,4.7,4.95,8.13,0,0,1.63,6.2-3.45,16.64,0,0-.93-14.38-9.21-15.2-8.21-.83-5,12.31-5,12.31,0,0-7.54-4.07-7.65,8.3-7.39-13.41-12.34-28.25-18.24-42.34-5.56-12.86-11.25-25.66-16.94-38.45-.14.46-.21.68-.35,1.14,6.57,15.41,13.2,30.78,19.46,46.32,6.57,16.69,13.43,33.29,19.81,50.04.57,2.39.23,6.32,1.34,8.37ZM494.63,422.47s-2.33-9.8,2.52-9.22c7.89.95,8.44,13.97,8.44,13.97-1.62,3.24-6.31,9.16-6.31,9.16.72-11.17-4.65-13.91-4.65-13.91ZM487.85,436.18s-1.94-10.78,2.32-10.79c7.25,0,7.67,12.94,7.67,12.94-4.54,4.27-6.04,7.91-6.04,7.91-.84-4.17-3.95-10.06-3.95-10.06Z"/>
        </g>
        <g id="g2887">
          <path id="path2889" class="cls-1" d="M342.31,567.37c6.34,3.18,15.65-6.63,18.22-13.99s4.58-15.38,4.58-15.38c18.96-7.13,18.44-18.01,18.44-18.01-4.79,9.55-13.26,11.7-13.26,11.7,2.01-3.94,1.79-6.6,4.3-13.46,2.5-6.88,6.36-8.33,6.36-8.33,1.88,6.77,9.88,6.53,10.75,3.41.75-2.73-.44-5.13-3.3-6.3-2.86-1.18-6.15.49-6.15.49-1.81-6.95,1.6-12.75,9.89-16.18,8.27-3.44,16.07,3.14,14.86,14.26-1.22,11.11-9.9,15.84-9.9,15.84,0,0-8.06-.29-13.24,5.43-4.67,5.15-3.09,8.75-3.09,8.75,1.01-1.43,1.5-2.14,2.47-3.57-.71-4.38,3.9-4.81,8.91-5.71,5.01-.9,11.23-2.84,11.23-2.84-1,4.48-1.95,10.44-7.03,20.26-4.85,9.38-9.85,12.43-13.64,11.36-3.06-.87-4.59-3.71-4.11-5.57.45-1.85,1.23-4.48,5.42-4.78,4.57-.32,3.67,3.7,3.67,3.7-.64-1.23-4.33-1.86-5.1,1.16-.95,3.79,4.56,5.28,6.65,1.05,1.48-3,1.58-7.37-2.44-8.52-4.03-1.14-8.44,2.23-9.61,5.24-.9,2.31-2.98,9.48,2.82,11.37,5.8,1.9,12.49-3.17,18.1-14.39,5.61-11.22,6.66-21.69,6.66-21.69,9.66-4.38,12.18-13.27,12.18-13.27,0,0,2.48,4.5,4.47,3.64,6.34-2.74,7.97-14,7.97-14,0,0,1.5,8.97,2.98,7.77,4.98-4.07,7.85-16.72,7.85-16.72,0,0,.5,2.75.97,5.37.47,2.6-.17,6.6-.17,6.6,1.22-2.7,2.73-3.61,10.22-8.37,7.48-4.76,7.75-13.54,7.75-13.54,0,0,1.89,4.52,4.01,3,2.58-1.86,3.22-3.84,3.64-5.86.63-3.04.31-5.8.31-5.8,0,0-1.42,6.8-4.23,6.47-3.28-.39-6.17-12.69-6.17-12.69,0,0,.67-2.75,1.64-2.84,3-.25,11.71,13.07,14.01,11.66,1.67-1.02,2.4-10.51,2.4-10.51,0,0,3.07,3.38,5.33,2.03,4.38-2.65,2.57-15.88,2.57-15.88,6.1,12.88,13.02,26.29,10.65,40.99-1.93,14.22-9.53,17.23-9.53,17.23-.03,1.1-.04,1.65-.07,2.75,10.16-5.23,12.45-22.28,12.22-32.35-1.06-12.45-6.51-24.07-12.88-34.62-4.25-7.11-4.37-9.34-4.37-9.34-2.35,3.67,1.05,6.85,2.13,13.43,1.21,7.4-.15,12.42-2.05,12.85-1.3.31-5.46-2.18-7.44-7-1.95-4.83,1.43-7.32,1.43-7.32.93,5.02,5.16,3.47,3.81-.49-2.17-6.44-8.76.21-7.5,7.7,1.27,7.49,4.98,9.52,4.98,9.52-.21,1.49-.32,2.23-.55,3.72-.71,4.97-6.25-1.31-10.76-5.88-4.52-4.57-6.95.89-6.95.89,0,0-.99-3.52-6.06-23.5-5.06-19.98-5.92-26.73-5.92-26.73-.25.34-.38.51-.63.85,1.19,13.14,4.32,26.14,6.96,39.04,2.32,9.5,4.6,18.88,8.44,27.9-.74,5.53-5.91,8.51-5.91,8.51,1.69-6.72,1.21-15.54-3.94-17.43-5.38-1.97-8.01,7.38-8.01,7.38,0,0-1.2-7.24-4.12-22.53-2.28-13.61-3.36-27.4-5.53-41.04-.23.28-.36.42-.59.69,1.17,13.35,2.43,26.67,4.07,39.97,1.59,10.72,3.08,21.5,5.34,32.11-1.71,8.53-5.06,13.94-6.08,14.02-1.03.08-1.72-4.12-2.59-8.24-4.15-17.56-5.1-35.77-6.37-53.7-1.18-12.72-3.22-25.38-4.11-38.11-.44.55-.66.82-1.11,1.36,1.5,14.79,2.87,29.54,3.82,44.38.55,11.33.72,22.75,2.79,33.94.72,5.02,3.06,11.21,1.95,17.17-.82,4.44-3.34,9.95-5.21,9.9s-5.74-4.01-6.57-9.06c-.88-5.33,3.54-6.28,3.54-6.28,0,0-1.17,3.62,1.68,3.82,3.69.26,2.45-6.61-1.17-6.38-3.2.21-5.67,3.7-5.98,8.95-.28,4.83,1.6,8.47,1.6,8.47-1.55,10.22-14.32,12.91-14.32,12.91,7.45-8.03,12.4-23.98,2.41-32.19-8.37-5.92-17.59,2.46-21.2,8.3-3.9,6.26-2.23,11.92-2.23,11.92-5.42,2.22-7.79,10.57-7.79,10.57,0,0-1.52-4.72-4.97-4.2-4.06.63-6.83,6.02-6.83,6.02,2.99-14.92,6.67-29.68,9.7-44.58,2.16-10.44,4.32-20.88,6.83-31.24-.35.2-.53.3-.87.49-2.52,10.41-5.45,20.73-7.9,31.16-2.8,12.54-6.22,24.95-8.68,37.56-3.17,17.5-6.42,21.98-6.42,21.98,0,0-4.56,1.02-9.79,5.28-4.9,3.97-5.14,8.27-5.14,8.27,1.02-.7,1.54-1.06,2.55-1.78.06-6.9,14.38-8.07,14.38-8.07-3.48,10.25-8.42,21.27-18.06,27.09-6.67,4.22-13.09-1.57-10.47-5.7,1.63-2.56,4.05-2.45,5.78-1.7,1.26.55,2.1,1.55,2.1,1.55-3.16-1.2-6.87,3.65-3.07,5.43,3.78,1.77,9.9-6.06,1.96-9.38-7.43-3.11-15.03,9.26-8.03,14.29,7.01,5.02,16.52-3.87,16.52-3.87ZM383.04,509.17c.31-.33,2.24-.53,4.02-.11,1.91.45,3.3,2.24,3.17,2.91-.22,1.15-2.02,1.22-3.79.53-2.66-1.03-3.4-3.33-3.4-3.33ZM441.35,481.59s2.07-9.63,6.9-5.98c4.82,3.65,2.96,11.45,2.22,13.49,0,0-3.36,2.22-6.92,4.87-.77-4.99-1.22-7.47-2.2-12.39ZM360.15,523.92s4.62-8.27,8.72-2.77c3.38,4.51-1.57,11.76-1.57,11.76,0,0-3.19,1-5.34,1.23-2.14.23-5.05.92-5.05.92,0,0,1.51-3.74,3.23-11.14ZM357.72,539.34s3.74-.52,5.58-1.06c0,0-2.08,9.27-4.55,14.92-2.47,5.64-8.26,11.97-12.53,9.7,0,0,4.67-4.2,11.5-23.56Z"/>
        </g>
        <g id="g2891">
          <path id="path2893" class="cls-1" d="M346.76,526.85c1.65-.4,2.22-2.15,1.87-3.4-.35-1.27-1.49-2.44-2.95-2.08-1.42.35-1.81,2.35-1.58,3.24.23.9,1.01,2.63,2.66,2.23Z"/>
        </g>
        <g id="g2895">
          <path id="path2897" class="cls-1" d="M192.79,534.99c3.48,5.14,14.78-1.54,14.78-1.54,0,0-4.08,4.66-3.45,5.62.83,1.26,4.52.23,4.52.23-6.89,7.56-16.41,12.45-19.67,14-3.26,1.56-13.1,4.74-15.31-1.52-1.01-2.84.38-5.75,2.4-6.58,1.97-.78,3.89-.75,5.3,1.22,1.69,2.34.43,3.75.43,3.75-1.28-2.33-6.64-1.28-5.92,2.34.79,3.91,11.81.42,8.48-6.86-2.79-6.07-15.22-2.66-14.83,5.85.38,8.52,11.23,6.98,19.26,4.11,8.65-3.78,16.05-10.26,22.72-16.82,3.6-.96,5.38-1.47,8.89-2.55,0,0-4.18,4.78-.73,6.72,3.47,1.93,12.23-1.05,12.23-1.05,0,0-1.03,3.25,2.12,4.16,3.91,1.15,13.03-4.58,13.03-4.58,0,0-4.29,5.07-2.75,6.15,3.29,2.31,12.39-3.84,12.39-3.84-6.33,8.3-13.51,16.07-21.84,22.41-10.41,7.66-14.37,4.5-14.37,4.5-.95.57-1.43.86-2.39,1.42,2.45,2.16,8.41,1.16,19.94-5.69,11.52-6.86,18.58-17.88,18.58-17.88,9.08-1.37,8.43,2.22,23.76,2.13,10.15-.01,20.84-3.61,27.82-11.19-15.47,9.26-21.33,7.19-21.33,7.19,0,0,11.29-9.32,8.46-15.63-3.1-6.96-13.91,3.78-13.91,3.78-1.37-10.16-11.44-3.15-11.44-3.15,0,0,4.94-8.62,12.68-18.9,7.52-9.65,15.96-18.55,24.44-27.35-.55.06-.81.09-1.36.15-8.62,8.63-17.47,17.11-25.2,26.58-7.15,9.43-14.13,18.97-21.29,28.39-4.15,3.01-8.33,4.54-8.94,4.09-.61-.45,1.69-4.29,3.15-6.27,9.89-13.79,19.7-27.65,29.6-41.44,8.08-10.73,16.2-21.43,25.02-31.57-.49.06-.74.09-1.23.15-8.6,10.35-17.61,20.39-25.85,31.04-7.36,9.85-14.75,19.69-22.14,29.53-2.98,1.6-6.3,2.8-19.03-.7-12.75-3.49-19.96,2.4-19.96,2.4,4.54-2.48,10.16-.03,10.16-.03-4.24,2.43-7.3,6.07-7.3,6.07-5.23,2.01-11.89,3.35-12.13,2.25-.25-1.1,1.04-3.7,4.62-7.93,3.58-4.21,7.46-6.73,7.46-6.73-5.35-.38-11.88,8-11.88,8-5.43,3.68-10.77,5.88-12.65,4.45-2.21-1.66.21-7.08,2.72-9.91,4.76-5.35,8.11-3.1,8.11-3.1-2.75.57-2.64,3.19-1.68,4.27.74.81,1.9.97,3.56-.48,1.79-1.56,3.28-6.74-3.91-6.21-7.22.52-17.6,11.4-14.12,16.54ZM281.18,536.83s7.55-7.12,9.95-1.75c2.4,5.38-7.05,11.65-7.05,11.65,0,0-6.37-.87-10.16-.99,0,0,6.22-4.09,7.26-8.91ZM266.68,536.37s7.5-6.64,10.23-.84c2.01,4.25-5.32,10-5.32,10,0,0-8.18-.65-12.35.5,3.08-3.83,4.56-5.76,7.43-9.66ZM243.41,530.73s8.19.75,13.01-1.76c-2.36,3.26-3.58,4.87-6.08,8.08,0,0-11.29,9.46-13.76,4.56-2.2-4.4,6.82-10.88,6.82-10.88ZM231.75,528.11s6.98,1.15,9.56,2.3c0,0-7.46,4.79-8.74,8.73,0,0-7.09,4.07-8.73.54-1.65-3.53,4.98-9.48,7.92-11.57Z"/>
        </g>
        <g id="g2899">
          <path id="path2901" class="cls-1" d="M186.65,504.34c3.34,6.97,11.66.17,10.29-3.15-1.37-3.34-5-.08-4.59,1.43.42,1.51,1.74,1.22,1.74,1.22-3.28,4.89-8.27-4.12-2.37-7.55,5.44-3.14,13.85,3.5,10.11,11.32-3.75,7.81-21.41,10.25-21.41,10.25-.67.64-1.01.96-1.69,1.6,2.36-.63,10.97-2.5,11.61.85.59,3.05-5.65,11.48-15.84,16.49-9.36,3.98-18.44,8.17-28.79,7.99-.76.35-1.14.53-1.9.87,12.73,1.85,27.69-4.58,38.37-11.05,5.91-3.72,8.78-7.2,10.79-10.53,4.71-7.84-1.03-7.7-1.03-7.7,6.24-2.19,19.43-10,13.68-18.95-2.97-4.61-8.71-5.4-13.1-3.11-4.37,2.29-7.55,6.54-5.88,10.01Z"/>
        </g>
        <g id="g2903">
          <path id="path2905" class="cls-1" d="M85.48,427.83c-6.84-6.41-4.84-7.92-9.66-13.84-4.71-5.79-10.53-5.94-10.53-5.94,7.75,3.92,8.19,8.49,8.19,8.49,0,0-16.91-4.78-17.46,2.44-.53,7.22,15.71,11.59,15.71,11.59,0,0-8.5.77-8.13,3.55.37,2.81,13.54,6.87,13.54,6.87,0,0-6.63,1.24-5.79,4.44,1.6,6.19,11.2,8.49,11.2,8.49,0,0-3.28,2.16-2.34,3.97,1.23,2.35,11.3,5.32,11.3,5.32-3.78,1.23-6.51.93-6.51.93,1.79.92,3.74,4.22,10.26,11.12,6.5,6.92,16.02,7.02,16.02,7.02,0,0-5.6,1.74-5.19,3.31.82,3.05,13.97,4.49,13.97,4.49-8.45,3.96-17.43,6.93-26.74,7.93-13.55,1.04-17.64-3.62-17.64-3.62-.5.21-.76.31-1.26.51,9.28,6.62,21.94,5.94,32.38,2.87,7.86-2.43,22.36-8.24,22.36-8.24,8.06-1.05,11.07.54,11.22,3.06.16,2.99-2,6.89-6.18,8.51-4.57,1.75-7.37-1.68-7.37-1.68,3.94-.55,4.12-6.79-.58-5.13-3.03,1.08-2.99,3.61-2.66,5.12.67,2.96,6.11,4.78,11.24,3.48,8.66-2.19,10.85-7.58,10.85-7.58,6.55-2.06,12.06,4.25,12.06,4.25,0,0-6.58,1.96-8.34,2.52-1.76.54-8.08,2.68-8.38,7.39-.41,7.02,12.32,4.32,12.32,4.32-3.13,5.3,2.38,5.71,2.38,5.71-12.8,6.85-21.71,8.09-25.01,8.27-3.3.18-13.29-.63-13.77-6.04-.55-5.93,4.93-7.4,7.27-4.3,1.64,2.17.62,3.29.62,3.29-.74-1.69-5.86-1.13-5.26,2.38.83,4.73,9.96,1.3,8.96-3.55-.94-4.61-5.06-6.22-8.43-5.78-1.74.23-8.08,1.98-8.17,7.66-.1,6.78,7.28,8.67,16.44,8.58,10.78-.74,21.39-5.22,31-9.91,3.56.27,7.99-1.79,7.99-1.79,0,0-5.15,3.36-4.55,4.63,1.55,3.27,11.99,1.24,11.99,1.24.4-.53.6-.8,1-1.33,0,0-8.95,1.32-7.63-1.52,1.13-2.43,6.2-5.24,11.71-8.53,3.72-2.2,7.43-3.31,7.43-3.31-7.95.14-16.67-4.65-24.81-10.58-8.16-5.93-16.33-5.1-16.33-5.1,1.65-7.63-12.61-6.64-12.61-6.64,12.92-6.42,25.62-13.24,38.41-19.9,9.44-4.73,21.44-9.61,21.44-9.61-.43-.22-.65-.33-1.08-.56,0,0-8.73,3.79-16.49,7.06-9.48,4.09-18.83,8.49-28.18,12.88-10.29,4.89-25.23,12.05-25.23,12.05,0,0-8.71-.97-9.31-2.65-.61-1.69,5.51-4.05,9.79-5.9,4.28-1.84,10.67-1.91,10.67-1.91-2.93-1.33-6.24-2.59-9.7-1.7-3.43.89-10.28,4.23-10.28,4.23-7.52-.6-12.47-5.29-12.47-5.29,0,0,13.54,1.72,15.89-4.87,2.34-6.58-9.99-9.31-9.99-9.31,14.06-4.19,28.29-7.85,42.47-11.65,12.3-3.19,24.59-6.5,37.04-9.07-.44-.27-.66-.41-1.1-.69-17.54,3.38-34.92,7.87-52.31,11.96-12.41,3.16-24.81,6.34-37.07,10.03,0,0-3.86-.74-8.21-2.76-4.83-2.25.68-4.91,6.37-9.91,5.69-5-1.11-8.8-1.11-8.8,0,0,8.11-1.7,18.79-2.84,10.23-.76,20.37-1.47,30.63-.97-.31-.3-.46-.45-.77-.75-10.24-.97-20.6-.42-30.85-.09-10.05.36-20.07,1.66-29.89,3.82-4.85-.57-11.34-3.03-11.47-4.06-.17-1.45,3.99-2.39,6.08-3.11,11.73-3.53,23.95-5.24,36.02-7.17,9.82-1.57,19.84-2.76,29.79-2.28-.32-.36-.49-.53-.81-.89-10.51-.39-20.86.71-31.3,1.71-13.75,1.43-23.91,3.62-23.91,3.62ZM168.04,506.77s6.34,3.39,11.51,3.5c0,0-17.19,10.9-21.16,6.35-3.41-3.89,6.28-9.16,9.64-9.85ZM159.22,500.81s4.43,3.44,7.09,4.94c0,0-8.15,2.08-11.21,5.98,0,0-7.64,2.49-8.96-1.66-1.32-4.15,7.61-8.3,13.08-9.25ZM103.5,462.88s11.57,1.63,8.34,7.54c-3.31,6.08-13.07,3.19-13.07,3.19,0,0-4.39-4.2-6.41-7.77,4.5-1.1,6.72-1.7,11.13-2.97ZM89.74,441.51s6.84,1.29,1.21,5.96c-5.14,4.25-6.42,4.87-6.42,4.87,0,0-6.56-.55-7.7-4.61-1.29-4.59,12.91-6.22,12.91-6.22ZM64.87,426.09c-2.97-1.91-4.6-4.06-3.62-5.23,1.93-2.32,8.96-3.3,12.98-2.22,0,0,1.78,6.03,7.98,9.68,0,0-10.16,2.36-17.33-2.23Z"/>
        </g>
        <g id="g2907">
          <path id="path2909" class="cls-1" d="M111.84,503.57c-1.91.09-7.88,1.61-10.2,2.47-2.35.86-.46,2.43,2.31,2.13,2.75-.31,5.17-2.05,7.67-2.71,2.51-.67,3.72-.18,3.63-1.16-.08-.97-1.49-.81-3.41-.73Z"/>
        </g>
        <g id="g2911">
          <path id="path2913" class="cls-1" d="M85.96,492.04c2.77-.04,5.33-1.55,7.88-1.97,2.55-.44,3.73.18,3.72-.81,0-.99-1.42-.97-3.34-1.07-1.91-.09-7.98.86-10.37,1.49-2.41.64-.67,2.41,2.11,2.37Z"/>
        </g>
        <g id="g2915">
          <path id="path2917" class="cls-1" d="M45.26,426.38c-1.82-.79-7.9-1.96-10.38-2.17s-1.3,2.24,1.37,3.18c2.66.94,5.55.3,8.11.77,2.57.46,3.52,1.48,3.8.48.27-1.01-1.09-1.49-2.9-2.25Z"/>
        </g>
        <g id="g2919">
          <path id="path2921" class="cls-1" d="M50.63,420.54c-4.03-10.55-11.12-6.4-11.12-6.4,2.84-.4,6.24,2.95,8.41,9.64,1.48,4.59,5.45,12.36,9.66,14.97,4.75,2.94,9.11,2.19,9.11,2.19-10.56-1.72-12.55-11.24-16.06-20.4Z"/>
        </g>
        <g id="g2923">
          <path id="path2925" class="cls-1" d="M6.16,320.99c-2,4.44,7.9,13.67,10.88,4.15,1.9-6.06-.84-10.41-4.68-13.63-3.98-3.39-8.5-4.41-11.03.27-4.85,11.78,4.53,23.38,12.46,31.09,7.83,8.08,19.05,14.98,19.05,14.98,2.41,9.61,7.8,18.19,14.98,24.93,0,0-8.48,1.34-5.03,7.93,3.74,7.14,13.4,11.03,13.4,11.03,0,0-12.41-.41-6.81,5.36,6.44,6.63,11.48,6.99,11.48,6.99,0,0-8.46-4.85-7.89-6.94.57-2.09,4.67-2.43,8.72-2.6,12.91-.9,25.91-.44,38.84-.58,15.11-.23,30.24-.45,45.35-.19-.29-.38-.45-.57-.74-.95-14.08-.25-28.18.26-42.24-.54-13.79-.72-27.64-.51-41.45-.7-3.02-.92-8.68-2.54-12.47-6.84-3.86-4.38-.09-9.17,7.01-8.64,7.11.53,7.5,6.87,7.5,6.87-1.25-2.04-5.47-.42-3.92,2.97,1.52,3.33,9.47,1.9,5.18-6.14-3.71-6.99-15.04-7.23-15.04-7.23-8.16-7.77-13.37-18.92-12.99-30.25,4.94,10.21,22.45,27.17,32.67,13.18,3.33-6.03,3.48-12.77,2.18-19.3-1.18-5.98-2.97-8.47-6.13-13.04-5.39-8.13-23.36-13.51-20.47,2.09,3.56,12.45,14.36,8.48,12.64,1.98-1.74-6.48-6.32-3.24-5.94-.93.38,2.31,2.95,2.57,2.95,2.57-.49,2.32-2.77,2.14-2.77,2.14-6.42-2.08-5.93-12.2-.72-13.53,5.2-1.32,15.58,6.69,16.52,16.84,1.05,8.61-.29,23.41-12.29,22.84-9.84-1.97-15.64-11.86-18.88-20.53,1.47-9.6,1.18-14.23-2.26-22.73-3.43-8.49-10.23-12.59-10.23-12.59.8,2.31,1.21,3.45,2.04,5.69,8.47,4.36,7.51,12.13,6.56,19.99-.95,7.94-.1,18.07-.1,18.07-9.35-5.08-12.22-7.6-20.96-18-8.74-10.42-7.5-17.48-6.22-20.2,1.27-2.7,4.72-4.86,7.03-2.35,2.3,2.51,2.63,4.94,2.16,7.8-.46,2.85-3.14,3.35-3.14,3.35,1.49-4.6-3.45-8.57-5.2-4.69Z"/>
        </g>
      </g>
      <g>
        <path id="path4666" class="cls-2" d="M35.11,268.56s1.45,3.1-1.41,3.55c-2.76.44-4.57-7.1-.65-12.46,3.92-5.37,9.07-5.86,8.07-14.12-1-8.27,5.63-4.53,3.22-.68-2.4,3.85,2.12,6.33-6.1,17.28-3.72,4.96-5.26,4.89-3.12,6.43Z"/>
        <path id="path4668" class="cls-2" d="M14.72,265.77s.4,4.03-3.33,3.17c-3.59-.83-3.44-12.27,3.83-16.02,7.27-3.75,14.86.33,17.31-8.51,2.45-8.84,9.08-2.14,4.34.72-4.75,2.86-.27,5.71-15.43,13.47-6.87,3.51-8.66,4.53-6.71,7.17Z"/>
      </g>
      <g>
        <path id="path4670" class="cls-2" d="M528.48,290.16s-1.6,2.95,1.1,3.66c2.59.69,4.83-6.62,1.49-12.31-3.35-5.69-8.21-6.67-6.66-14.76,1.56-8.09-5.02-5.03-3.01-.98,2,4.05-2.48,6.08,4.57,17.72,3.19,5.27,4.66,5.35,2.52,6.67Z"/>
        <path id="path4672" class="cls-2" d="M548.06,289.28s-.65,3.95,2.95,3.44c3.47-.49,4.12-11.81-2.52-16.19-6.64-4.38-14.15-1.08-15.84-10.05-1.69-8.97-8.48-2.99-4.18.3,4.3,3.29-.16,5.69,13.7,14.78,6.28,4.12,7.92,5.29,5.88,7.72Z"/>
      </g>
    </g>
  </g>
</svg>